<?xml version="1.0" standalone="no"?>
<!DOCTYPE svg PUBLIC "-//W3C//DTD SVG 20010904//EN"
 "http://www.w3.org/TR/2001/REC-SVG-20010904/DTD/svg10.dtd">
<svg version="1.0" xmlns="http://www.w3.org/2000/svg"
 width="24" height="24" viewBox="0 0 938.000000 960.000000"
 preserveAspectRatio="xMidYMid meet">
<metadata>
Created by potrace 1.16, written by Peter Selinger 2001-2019
</metadata>
<g transform="translate(0.000000,960.000000) scale(0.100000,-0.100000)"
fill="#336699" stroke="none">
<path d="M830 7215 c0 -806 2 -1465 4 -1465 3 0 12 24 22 53 66 202 323 603
550 857 209 235 601 585 829 742 33 23 62 45 65 48 5 7 247 168 355 236 327
208 867 477 1195 596 30 11 69 26 85 33 17 7 84 31 150 54 474 158 923 257
1395 304 19 2 -1019 5 -2307 5 l-2343 2 0 -1465z"/>
<path d="M6180 8674 c14 -2 77 -11 140 -20 173 -24 245 -49 301 -104 57 -57
74 -116 66 -234 -5 -86 -35 -187 -93 -315 -19 -41 -34 -77 -34 -82 0 -4 37 -5
83 -2 194 13 435 -32 528 -99 87 -63 109 -117 85 -202 -22 -75 -77 -132 -279
-288 -187 -144 -407 -321 -502 -403 -33 -29 -94 -80 -135 -114 -41 -35 -91
-77 -110 -95 -19 -17 -98 -88 -175 -156 -231 -206 -532 -500 -901 -881 -137
-141 -166 -166 -240 -217 -318 -216 -664 -229 -875 -35 -192 178 -215 560 -52
890 97 199 287 419 526 610 31 25 57 50 57 54 0 5 4 9 10 9 8 0 124 83 140
100 3 3 23 17 45 31 22 14 78 51 125 82 94 61 348 217 355 217 2 0 30 15 62
34 102 59 195 107 593 313 69 36 133 72 143 80 31 28 137 216 154 273 24 78
22 168 -5 211 -91 149 -346 155 -891 23 -608 -148 -1392 -473 -1930 -800 -35
-22 -71 -43 -80 -49 -73 -44 -110 -69 -211 -139 -216 -149 -386 -284 -509
-400 -468 -447 -695 -836 -757 -1301 -48 -354 52 -773 246 -1030 228 -303 561
-517 1075 -690 77 -26 151 -49 165 -51 14 -3 48 -11 75 -19 162 -46 514 -110
740 -135 55 -6 136 -15 180 -20 291 -34 1079 -46 1430 -22 459 32 662 55 1000
113 472 82 943 256 1208 445 26 19 49 34 51 34 3 0 29 25 58 56 212 224 299
477 285 831 -3 84 -1 157 5 174 21 61 103 79 157 33 l31 -26 0 1661 0 1661
-1182 -1 c-651 -1 -1172 -3 -1158 -5z"/>
<path d="M8510 4512 c0 -10 -4 -22 -9 -27 -4 -6 -16 -35 -25 -65 -33 -107
-169 -363 -237 -445 -167 -202 -204 -241 -343 -360 -76 -64 -224 -174 -301
-222 -33 -20 -61 -41 -63 -45 -2 -4 -8 -8 -14 -8 -5 0 -40 -17 -76 -39 -463
-267 -1014 -465 -1727 -620 -23 -5 548 -9 1383 -10 l1422 -1 0 930 c0 512 -2
930 -5 930 -3 0 -5 -8 -5 -18z"/>
<path d="M831 3458 l-1 -788 1128 1 c1001 1 1118 2 1047 15 -131 23 -321 68
-505 118 -57 16 -246 82 -315 111 -65 26 -270 132 -343 176 -301 183 -629 504
-827 809 -65 100 -148 251 -170 310 -12 29 -14 -89 -14 -752z"/>
<path d="M1038 2153 c-3 -59 -6 -69 -25 -78 -30 -13 -29 -42 2 -67 23 -18 25
-25 25 -112 0 -110 -10 -126 -82 -126 -56 0 -69 14 -76 80 -3 33 -9 50 -18 50
-20 0 -18 -95 3 -130 44 -75 165 -65 199 17 22 52 18 191 -6 228 -18 27 -18
30 -2 48 11 12 18 41 20 88 4 64 3 69 -16 69 -19 0 -21 -7 -24 -67z"/>
<path d="M1252 2165 c4 -47 10 -62 40 -93 63 -67 68 -79 68 -172 0 -108 -12
-130 -74 -130 -56 0 -76 22 -76 83 0 40 -3 47 -20 47 -17 0 -20 -7 -20 -40 0
-87 44 -140 115 -140 85 0 115 51 115 194 l0 95 -55 62 c-49 55 -55 66 -55
105 0 38 -3 44 -21 44 -20 0 -21 -4 -17 -55z"/>
<path d="M1550 2203 c-40 -28 -49 -45 -50 -95 0 -36 4 -48 15 -48 10 0 15 11
15 35 0 53 31 79 87 72 25 -3 49 -11 54 -18 5 -8 8 -39 7 -69 -3 -46 -7 -57
-25 -65 -27 -12 -30 -43 -5 -52 9 -4 20 -11 24 -17 13 -18 9 -151 -4 -164 -7
-7 -33 -12 -59 -12 -58 0 -79 23 -79 87 0 32 -4 43 -15 43 -20 0 -20 -90 0
-129 30 -59 139 -68 182 -15 41 52 40 194 -2 210 -20 8 -19 27 4 48 42 38 32
133 -19 179 -36 32 -92 36 -130 10z"/>
<path d="M2020 2155 c0 -59 -2 -66 -24 -76 -37 -17 -38 -44 -5 -68 28 -21 29
-24 29 -109 0 -113 -12 -132 -80 -132 -59 0 -80 23 -80 87 0 36 -3 43 -20 43
-16 0 -20 -7 -20 -32 0 -62 19 -108 53 -128 54 -33 118 -24 160 23 26 30 27
228 1 258 -18 20 -18 27 1 45 14 15 18 37 17 94 0 53 -2 60 -17 60 -12 0 -15
-14 -15 -65z"/>
<path d="M2230 2171 c0 -44 21 -89 52 -112 5 -3 19 -20 33 -39 22 -30 25 -44
25 -114 0 -108 -12 -130 -72 -134 -60 -4 -78 14 -78 79 0 43 -2 49 -21 49 -20
0 -21 -4 -17 -61 4 -54 9 -66 36 -90 51 -46 132 -36 169 20 13 19 18 53 21
131 l4 105 -56 64 c-49 57 -56 70 -56 108 0 36 -3 43 -20 43 -17 0 -20 -7 -20
-49z"/>
<path d="M2500 2001 l0 -219 32 -32 c29 -30 36 -32 85 -28 61 5 89 25 103 76
7 29 5 45 -16 94 -14 33 -24 72 -22 87 2 20 -2 27 -18 29 -20 3 -21 0 -16 -45
3 -26 13 -64 23 -83 23 -42 24 -59 3 -88 -14 -20 -23 -23 -67 -20 -74 4 -77
12 -77 251 0 168 -2 197 -15 197 -13 0 -15 -31 -15 -219z"/>
<path d="M2879 2205 c-46 -25 -53 -56 -57 -253 -4 -192 0 -232 22 -232 22 0
27 42 25 237 -1 115 3 189 9 195 6 6 30 13 55 15 36 4 49 1 66 -16 20 -20 21
-31 21 -219 0 -109 3 -201 6 -205 3 -3 12 -3 19 -1 9 4 11 46 8 182 -2 97 -3
194 -3 215 0 78 -95 123 -171 82z"/>
<path d="M3221 2204 c-44 -31 -51 -69 -51 -279 0 -186 1 -195 19 -195 19 0 20
10 23 205 2 151 6 207 16 217 14 14 85 17 115 6 15 -7 17 -27 17 -218 0 -203
1 -210 20 -210 19 0 20 7 20 214 l0 214 -29 31 c-25 26 -36 31 -78 31 -29 0
-58 -7 -72 -16z"/>
<path d="M3522 1995 c3 -214 4 -225 24 -246 27 -27 102 -36 145 -19 32 14 59
59 59 100 0 11 -9 38 -20 60 -11 22 -20 57 -20 80 0 33 -3 40 -20 40 -17 0
-20 -7 -20 -47 0 -31 7 -59 20 -78 40 -61 15 -115 -54 -115 -74 0 -76 6 -76
243 0 202 0 207 -21 207 -20 0 -20 -4 -17 -225z"/>
<path d="M4150 2210 c-8 -5 -27 -10 -42 -10 -30 0 -37 -20 -14 -39 10 -8 21
-8 45 0 41 15 52 4 56 -53 4 -67 4 -68 20 -68 11 0 15 11 15 38 0 73 46 115
84 76 15 -15 17 -38 14 -186 -3 -189 -7 -198 -74 -198 -52 0 -78 28 -76 83 2
41 0 47 -18 47 -17 0 -20 -7 -20 -45 0 -106 83 -166 170 -122 51 25 60 65 60
260 0 176 0 178 -25 202 -26 27 -91 35 -113 13 -9 -9 -18 -9 -37 0 -31 14 -26
14 -45 2z"/>
<path d="M4515 2187 l-35 -35 0 -180 0 -181 34 -35 c28 -30 40 -36 74 -36 89
0 122 36 130 142 4 61 2 72 -21 107 -35 53 -86 64 -161 35 -14 -5 -16 3 -16
56 0 92 7 100 90 100 81 0 100 6 100 31 0 16 -8 19 -42 19 -24 0 -60 3 -80 6
-33 6 -41 3 -73 -29z m148 -239 c25 -30 24 -131 -3 -158 -24 -24 -86 -27 -118
-4 -19 13 -22 24 -22 77 0 69 16 103 53 110 35 6 71 -4 90 -25z"/>
<path d="M4848 2191 l-33 -29 -3 -213 c-3 -210 -1 -228 30 -229 4 0 8 94 10
210 2 155 6 212 16 222 14 14 105 18 119 5 4 -5 10 -104 13 -220 4 -180 7
-212 20 -212 13 0 15 32 18 215 l2 216 -31 32 c-27 27 -38 32 -80 32 -40 0
-55 -5 -81 -29z"/>
<path d="M5174 2197 c-38 -33 -53 -137 -19 -137 7 0 15 18 19 44 6 36 12 46
36 56 36 15 96 6 104 -16 3 -9 6 -38 6 -65 0 -43 -3 -51 -25 -61 -14 -6 -25
-19 -25 -28 0 -10 11 -25 25 -34 23 -15 25 -23 25 -91 0 -85 -9 -95 -78 -95
-49 0 -61 14 -69 79 -5 42 -9 51 -26 51 -17 0 -19 -5 -13 -47 10 -70 25 -102
57 -118 34 -18 85 -19 119 -2 68 34 83 198 23 242 -11 8 -9 16 12 45 15 20 25
47 25 67 0 46 -33 106 -65 121 -43 20 -101 15 -131 -11z"/>
<path d="M5510 2207 c-32 -25 -50 -62 -50 -104 0 -36 3 -43 20 -43 17 0 20 7
20 38 0 55 26 76 82 69 64 -9 68 -19 68 -197 0 -185 -6 -200 -74 -200 -56 0
-76 22 -76 82 0 49 -5 59 -26 51 -20 -7 -18 -98 3 -133 34 -58 122 -69 175
-21 l33 29 3 164 c4 180 -4 226 -45 257 -29 24 -108 28 -133 8z"/>
<path d="M6000 2206 c0 -13 -38 -61 -91 -117 -9 -9 -35 -40 -58 -69 l-41 -52
0 -118 c0 -76 4 -121 11 -126 21 -12 29 21 29 120 0 112 7 125 73 126 31 0 39
-4 47 -26 6 -14 10 -45 10 -68 0 -34 4 -45 19 -49 16 -4 19 2 23 53 5 69 19
90 62 90 56 0 61 -9 66 -132 4 -97 7 -113 23 -116 15 -3 17 8 17 117 0 110 -2
122 -22 146 -30 34 -84 42 -131 20 -33 -15 -38 -16 -59 -1 -12 9 -30 16 -40
16 -28 0 -21 22 25 74 23 27 52 61 64 75 30 34 29 51 -2 51 -15 0 -25 -6 -25
-14z"/>
<path d="M6292 2003 c3 -237 7 -252 60 -274 38 -16 116 -6 139 18 31 30 39 74
22 119 -9 21 -20 63 -26 92 -9 39 -16 52 -29 52 -26 0 -24 -74 2 -118 22 -36
26 -73 10 -103 -8 -14 -21 -19 -53 -19 -82 0 -82 0 -85 239 -3 204 -4 211 -23
211 -20 0 -20 -5 -17 -217z"/>
<path d="M6671 2204 c-44 -31 -51 -69 -51 -278 0 -168 2 -195 16 -200 9 -3 18
-6 20 -6 2 0 4 83 4 184 0 101 3 197 6 214 8 40 50 59 102 46 48 -12 49 -21
51 -251 1 -149 4 -183 15 -183 20 0 21 16 16 238 l-5 204 -28 24 c-34 29 -109
33 -146 8z"/>
<path d="M7104 2208 c-51 -24 -58 -97 -13 -139 29 -27 30 -30 15 -51 -9 -12
-16 -35 -16 -51 0 -24 4 -28 23 -25 15 2 23 11 26 28 6 43 39 51 97 24 19 -9
41 -29 49 -45 15 -29 20 -104 9 -134 -11 -27 -60 -45 -122 -45 -126 0 -154 31
-160 170 -4 88 -13 116 -34 104 -4 -3 -8 -48 -8 -101 0 -78 4 -105 21 -141 32
-65 67 -82 166 -82 45 0 93 4 106 9 86 33 105 217 28 279 -9 7 -28 18 -43 23
-30 12 -35 28 -17 46 6 6 12 30 13 53 1 34 -4 46 -27 66 -30 26 -76 31 -113
12z"/>
<path d="M7488 2206 c-30 -23 -48 -62 -48 -103 0 -36 3 -43 20 -43 16 0 20 7
20 38 0 20 4 43 9 50 11 19 83 27 110 13 20 -11 21 -18 21 -189 0 -125 -4
-182 -12 -190 -15 -15 -82 -16 -109 -2 -15 9 -19 22 -19 64 0 45 -3 54 -20 59
-18 5 -20 0 -20 -55 0 -55 3 -63 34 -94 28 -28 41 -34 78 -34 95 0 118 45 118
238 0 168 -5 194 -41 233 -25 26 -34 30 -77 28 -27 -1 -56 -7 -64 -13z"/>
<path d="M7906 2199 c-22 -17 -26 -28 -26 -69 0 -41 4 -51 26 -67 23 -17 25
-23 15 -41 -6 -11 -11 -34 -11 -51 0 -24 4 -31 19 -31 13 0 19 7 19 26 0 34
18 46 62 40 75 -11 115 -73 100 -156 -12 -65 -36 -80 -128 -80 -65 0 -80 3
-108 25 -40 31 -54 74 -54 171 0 55 -4 73 -15 78 -23 9 -28 -15 -23 -117 5
-113 28 -165 85 -195 31 -17 167 -15 208 2 112 47 105 252 -9 296 -23 8 -27
15 -22 33 22 71 19 95 -12 127 -37 37 -86 40 -126 9z"/>
<path d="M8321 2204 c-44 -31 -51 -69 -51 -279 0 -123 4 -195 10 -195 6 0 13
-1 18 -2 4 -2 9 90 12 204 3 129 9 211 16 218 17 17 76 23 107 11 l27 -11 0
-210 c0 -203 1 -210 20 -210 19 0 20 7 20 205 0 218 -6 251 -49 275 -30 15
-104 12 -130 -6z"/>
<path d="M990 1320 c-96 -33 -146 -118 -141 -243 6 -164 90 -256 221 -244 69
6 100 24 140 85 36 54 37 60 8 71 -20 7 -25 4 -38 -30 -44 -114 -199 -119
-259 -9 -22 38 -25 58 -25 130 0 128 44 197 136 214 61 11 111 -18 153 -89 6
-10 16 -14 28 -9 43 16 -35 112 -108 132 -56 15 -49 15 -115 -8z"/>
<path d="M2369 1325 c-67 -21 -114 -73 -135 -151 -31 -117 1 -246 77 -307 52
-41 139 -49 203 -17 68 32 123 133 79 142 -12 2 -24 -11 -40 -43 -37 -74 -130
-102 -200 -59 -44 26 -62 57 -75 127 -29 158 38 280 152 277 57 -2 102 -29
122 -74 14 -33 16 -34 37 -21 16 10 8 39 -20 75 -42 54 -124 74 -200 51z"/>
<path d="M3247 1325 c-56 -14 -83 -36 -97 -81 -28 -83 13 -130 148 -175 114
-37 132 -50 132 -96 0 -47 -16 -72 -55 -89 -78 -32 -172 -1 -199 66 -21 52
-51 56 -43 6 12 -76 62 -115 157 -123 82 -8 142 20 171 80 47 97 0 160 -152
207 -109 34 -135 56 -123 104 10 43 49 66 111 66 68 0 88 -11 113 -60 22 -42
37 -50 47 -24 8 22 -21 80 -50 98 -38 25 -108 34 -160 21z"/>
<path d="M4160 1326 c-78 -19 -110 -54 -110 -123 0 -63 37 -96 149 -132 108
-35 141 -60 141 -107 0 -36 -16 -56 -63 -80 -65 -34 -192 13 -199 73 -2 20 -9
28 -23 28 -16 0 -20 -6 -18 -30 6 -73 91 -129 188 -123 109 7 176 80 153 168
-18 66 -61 96 -185 127 -89 22 -119 59 -97 118 10 25 59 45 113 45 39 0 56 -6
80 -26 17 -14 31 -34 31 -45 0 -14 7 -19 25 -19 29 0 31 10 11 48 -36 69 -110
98 -196 78z"/>
<path d="M7217 1326 c-46 -17 -64 -32 -83 -67 -20 -40 -17 -82 8 -115 31 -40
40 -45 147 -79 111 -36 140 -63 125 -116 -5 -18 -22 -41 -37 -53 -64 -47 -200
-11 -214 57 -7 33 -17 40 -42 32 -16 -5 -18 -11 -11 -37 23 -77 87 -118 186
-118 105 0 169 61 161 155 -6 69 -48 104 -160 135 -112 31 -144 64 -121 125
16 41 118 59 174 30 17 -9 36 -31 44 -50 16 -37 22 -40 45 -26 20 13 -19 91
-57 113 -41 24 -119 31 -165 14z"/>
<path d="M1452 1303 c-15 -38 -55 -151 -107 -303 -24 -69 -47 -133 -50 -142
-6 -14 -2 -18 17 -18 22 0 27 9 48 75 l24 75 103 0 c116 0 100 11 140 -95 14
-37 25 -51 42 -53 21 -3 22 -1 16 30 -4 18 -14 46 -21 63 -7 16 -44 111 -82
210 -62 164 -71 180 -94 183 -20 2 -27 -3 -36 -25z m85 -148 c18 -55 33 -105
33 -112 0 -10 -21 -13 -80 -13 -95 0 -93 -5 -52 120 46 142 53 142 99 5z"/>
<path d="M1770 1159 c0 -200 9 -247 56 -289 88 -77 249 -39 281 66 7 23 12
112 12 217 1 167 0 177 -18 177 -17 0 -19 -12 -23 -182 -5 -205 -12 -232 -68
-261 -66 -34 -165 -4 -181 54 -4 13 -7 106 -8 207 l-1 182 -25 0 -25 0 0 -171z"/>
<path d="M2831 1308 c-5 -13 -16 -41 -24 -63 -31 -79 -137 -386 -137 -396 0
-6 10 -9 22 -7 17 2 26 18 46 76 l24 72 104 0 c91 0 105 -2 110 -17 3 -10 15
-44 27 -75 18 -48 26 -58 45 -58 28 0 35 -24 -73 264 -77 205 -85 221 -109
224 -20 3 -28 -2 -35 -20z m80 -153 c22 -59 39 -112 39 -117 0 -4 -38 -8 -85
-8 -47 0 -85 3 -85 7 0 22 77 232 84 230 5 -2 26 -52 47 -112z"/>
<path d="M3581 1138 c4 -212 11 -236 72 -282 41 -30 163 -30 203 0 67 49 69
56 72 275 l4 201 -24 -4 c-23 -3 -23 -3 -28 -193 -6 -217 -11 -236 -79 -256
-54 -16 -108 -4 -141 31 -32 35 -40 89 -40 286 0 130 -1 134 -21 134 -21 0
-21 -2 -18 -192z"/>
<path d="M4670 1143 c0 -229 10 -261 86 -295 59 -26 148 -21 192 11 57 40 66
76 70 284 l4 187 -25 0 -25 0 -4 -192 c-4 -213 -8 -231 -63 -254 -45 -18 -89
-18 -130 1 -53 26 -59 50 -63 258 -3 177 -5 187 -23 187 -18 0 -19 -9 -19
-187z"/>
<path d="M5131 1085 l-2 -245 26 0 25 0 0 180 c0 208 6 220 66 123 187 -306
185 -303 215 -303 l29 0 0 245 0 245 -25 0 -25 0 0 -185 c0 -151 -3 -185 -14
-185 -7 0 -47 55 -88 123 -155 252 -151 247 -180 247 l-26 0 -1 -245z"/>
<path d="M5616 1295 c-4 -19 -6 -130 -5 -245 l1 -210 24 0 24 0 0 245 c0 234
-1 245 -19 245 -14 0 -21 -10 -25 -35z"/>
<path d="M5764 1263 c13 -37 43 -120 66 -183 23 -63 52 -143 63 -177 20 -59
23 -63 52 -63 29 0 32 4 52 63 12 34 47 132 78 217 81 220 78 210 51 210 -27
0 -27 0 -115 -260 -33 -96 -63 -175 -67 -175 -4 0 -39 97 -78 215 -68 206 -72
215 -98 218 l-27 3 23 -68z"/>
<path d="M6220 1085 l0 -245 170 0 c163 0 170 1 170 20 0 18 -8 20 -142 22
l-143 3 0 90 0 90 128 3 127 3 0 24 0 25 -130 0 -131 0 3 78 3 77 138 3 137 3
0 24 0 25 -165 0 -165 0 0 -245z"/>
<path d="M6656 1313 c-3 -10 -5 -120 -4 -245 l2 -228 22 0 c27 0 38 47 29 125
-11 85 -4 95 66 95 54 0 64 -3 87 -29 36 -38 52 -59 52 -66 0 -3 17 -32 37
-65 32 -50 43 -60 65 -60 16 0 28 3 28 8 0 11 -95 154 -119 179 -11 12 -21 26
-21 30 1 4 20 17 43 28 108 51 91 216 -24 239 -17 3 -82 6 -145 6 -99 0 -113
-2 -118 -17z m250 -33 c15 -6 33 -18 40 -28 20 -26 17 -86 -5 -113 -18 -22
-28 -24 -124 -27 l-104 -4 -7 81 c-4 44 -5 85 -1 91 8 13 166 13 201 0z"/>
<path d="M7570 1085 l0 -245 25 0 25 0 0 245 0 245 -25 0 -25 0 0 -245z"/>
<path d="M7702 1308 c3 -21 9 -23 81 -26 l77 -3 0 -219 0 -220 25 0 25 0 0
220 0 220 74 0 c76 0 91 6 80 34 -5 14 -31 16 -186 16 l-179 0 3 -22z"/>
<path d="M8111 1308 c7 -13 45 -76 86 -140 l73 -118 0 -105 0 -105 25 0 25 0
0 105 0 105 47 73 c25 39 54 83 63 97 9 14 29 44 43 68 l27 42 -28 0 c-24 0
-35 -12 -96 -115 -38 -63 -73 -115 -77 -115 -4 0 -38 52 -76 115 -60 104 -70
115 -95 115 -27 0 -28 -2 -17 -22z"/>
</g>
</svg>
