<?xml version="1.0" encoding="iso-8859-1"?>
<!-- Generator: Adobe Illustrator 19.0.0, SVG Export Plug-In . SVG Version: 6.00 Build 0)  -->
<svg version="1.1" id="Capa_1" xmlns="http://www.w3.org/2000/svg" xmlns:xlink="http://www.w3.org/1999/xlink" x="0px" y="0px"
	 viewBox="0 0 384 384" width="24" height="24" style="enable-background:new 0 0 384 384;" xml:space="preserve">
<linearGradient id="SVGID_1_" gradientUnits="userSpaceOnUse" x1="9.8111" y1="458.9111" x2="38.7711" y2="429.9411" gradientTransform="matrix(8 0 0 -8 791 4509)">
	<stop  offset="0" style="stop-color:#EFEEEE"/>
	<stop  offset="1" style="stop-color:#DEDEDD"/>
</linearGradient>
<polygon style="fill:url(#SVGID_1_);" points="72,8 376,8 376,280 280,376 72,376 "/>
<polygon style="fill:#ABABAB;" points="280,280 376,280 280,376 "/>
<rect x="8" y="88" style="fill:#3A3A39;" width="256" height="128"/>
<path style="fill:#010101;" d="M64,0v80H0v144h64v160h224l96-96V0H64z M16,96h240v112H16V96z M288,361.36V288h73.376L288,361.36z
	 M368,272h-96v96H80V224h192V80H80V16h288V272z"/>
<g>
	<path style="fill:#FFFFFF;" d="M69.648,117.856l9.792,48.384h0.192l9.888-48.384h20.448V186.4H97.28v-54.72h-0.192L84.896,186.4
		H74.16l-12.192-54.72H61.76v54.72H49.088v-68.544L69.648,117.856L69.648,117.856z"/>
	<path style="fill:#FFFFFF;" d="M145.968,117.84c3.504,0,6.464,0.608,8.88,1.792s4.336,2.736,5.808,4.656s2.528,4.112,3.152,6.576
		c0.64,2.448,0.976,4.976,0.976,7.536c0,3.52-0.528,6.592-1.6,9.216c-1.04,2.624-2.528,4.768-4.4,6.416
		c-1.888,1.664-4.192,2.928-6.88,3.744s-5.664,1.248-8.928,1.248h-7.392v27.36H121.76V117.84H145.968z M141.728,148.88
		c2.752,0,4.992-0.848,6.672-2.512c1.68-1.664,2.544-4.256,2.544-7.776c0-3.456-0.736-6.08-2.208-7.872
		c-1.472-1.776-3.936-2.688-7.408-2.688h-5.744v20.848H141.728z"/>
	<path style="fill:#FFFFFF;" d="M192.624,118.432h14.304v43.104h6.512v10.752h-6.512V186.4h-12.672v-14.112h-24.192V160.96
		L192.624,118.432z M194.064,135.712l-13.248,25.824h13.44v-25.824H194.064z"/>
</g>
<g>
</g>
<g>
</g>
<g>
</g>
<g>
</g>
<g>
</g>
<g>
</g>
<g>
</g>
<g>
</g>
<g>
</g>
<g>
</g>
<g>
</g>
<g>
</g>
<g>
</g>
<g>
</g>
<g>
</g>
</svg>
