<?xml version="1.0" encoding="iso-8859-1"?>
<!-- Generator: Adobe Illustrator 19.0.0, SVG Export Plug-In . SVG Version: 6.00 Build 0)  -->
<svg version="1.1" id="Capa_1" xmlns="http://www.w3.org/2000/svg" xmlns:xlink="http://www.w3.org/1999/xlink" x="0px" y="0px"
	 viewBox="0 0 384 384" width="24" height="24" style="enable-background:new 0 0 384 384;" xml:space="preserve">
<polygon style="fill:#EFEEEE;" points="72,8 376,8 376,280 280,376 72,376 "/>
<polygon style="fill:#ABABAB;" points="280,280 376,280 280,376 "/>
<rect x="8" y="88" style="fill:#527DA1;" width="256" height="128"/>
<path style="fill:#010101;" d="M64,0v80H0v144h64v160h224l96-96V0H64z M16,96h240v112H16V96z M288,361.376V288h73.376L288,361.376z
	 M368,272h-96v96H80V224h192V80H80V16h288V272z"/>
<g>
	<path style="fill:#FFFFFF;" d="M69.28,167.024c0,1.6,0.128,3.056,0.368,4.352c0.256,1.312,0.736,2.416,1.44,3.312
		c0.704,0.912,1.664,1.616,2.848,2.128c1.168,0.496,2.656,0.768,4.448,0.768c2.112,0,4.016-0.688,5.696-2.064
		c1.696-1.376,2.56-3.52,2.56-6.384c0-1.536-0.224-2.864-0.624-3.984c-0.416-1.12-1.104-2.128-2.064-3.008
		c-0.976-0.912-2.24-1.712-3.808-2.448s-3.504-1.488-5.792-2.256c-3.072-1.024-5.728-2.16-7.968-3.376
		c-2.24-1.2-4.112-2.624-5.616-4.272c-1.504-1.632-2.624-3.52-3.312-5.664c-0.72-2.16-1.056-4.624-1.056-7.456
		c0-6.784,1.888-11.824,5.664-15.152s8.976-4.992,15.568-4.992c3.056,0,5.904,0.336,8.496,1.008s4.832,1.744,6.72,3.264
		c1.872,1.504,3.36,3.424,4.4,5.744c1.056,2.336,1.6,5.136,1.6,8.4v1.92H85.6c0-3.264-0.576-5.776-1.712-7.552
		c-1.152-1.744-3.088-2.64-5.776-2.64c-1.536,0-2.816,0.24-3.824,0.672c-1.008,0.448-1.84,1.04-2.448,1.776
		c-0.608,0.736-1.056,1.6-1.28,2.576c-0.224,0.96-0.336,1.952-0.336,2.976c0,2.128,0.448,3.888,1.344,5.328
		c0.896,1.456,2.816,2.784,5.76,3.984L88,148.592c2.624,1.152,4.752,2.352,6.416,3.616c1.664,1.264,2.992,2.592,3.984,4.032
		s1.68,3.008,2.064,4.752c0.384,1.712,0.576,3.648,0.576,5.744c0,7.232-2.096,12.496-6.304,15.792
		c-4.192,3.296-10.032,4.96-17.504,4.96c-7.808,0-13.408-1.696-16.768-5.088c-3.36-3.392-5.04-8.256-5.04-14.592v-2.784H69.28
		V167.024z"/>
	<path style="fill:#FFFFFF;" d="M144.72,186.416c-2.544,0.704-5.6,1.056-9.104,1.056c-5.168,0-9.312-0.848-12.384-2.496
		c-3.056-1.664-5.408-4.064-7.04-7.2c-1.632-3.136-2.688-6.88-3.168-11.232c-0.464-4.336-0.72-9.152-0.72-14.384
		c0-5.184,0.256-9.968,0.72-14.352c0.48-4.368,1.536-8.144,3.168-11.28c1.648-3.12,3.984-5.584,7.04-7.344
		c3.072-1.744,7.216-2.64,12.384-2.64c5.184,0,9.312,0.896,12.384,2.64c3.056,1.76,5.408,4.224,7.04,7.344
		c1.648,3.136,2.688,6.912,3.168,11.28c0.464,4.384,0.72,9.168,0.72,14.352c0,5.808-0.32,11.088-0.976,15.824
		c-0.624,4.752-2.064,8.736-4.32,12l7.392,7.2l-8.16,7.392L144.72,186.416z M126.432,163.904c0.224,3.232,0.688,5.856,1.344,7.872
		c0.688,2.016,1.632,3.488,2.88,4.416s2.912,1.392,4.96,1.392s3.696-0.464,4.96-1.392c1.248-0.944,2.208-2.4,2.88-4.416
		c0.672-2.016,1.12-4.64,1.344-7.872s0.336-7.136,0.336-11.744s-0.128-8.512-0.336-11.712s-0.672-5.824-1.344-7.872
		c-0.672-2.048-1.632-3.536-2.88-4.448c-1.248-0.944-2.912-1.408-4.96-1.408s-3.696,0.464-4.96,1.408
		c-1.248,0.928-2.192,2.4-2.88,4.448c-0.656,2.048-1.12,4.672-1.344,7.872s-0.336,7.104-0.336,11.712
		S126.224,160.672,126.432,163.904z"/>
	<path style="fill:#FFFFFF;" d="M172.832,117.872h13.856v57.216h24.464v11.328h-38.32V117.872z"/>
</g>
<g>
</g>
<g>
</g>
<g>
</g>
<g>
</g>
<g>
</g>
<g>
</g>
<g>
</g>
<g>
</g>
<g>
</g>
<g>
</g>
<g>
</g>
<g>
</g>
<g>
</g>
<g>
</g>
<g>
</g>
</svg>
