<svg id="Layer_1" height="24" viewBox="0 0 512 512" width="24" xmlns="http://www.w3.org/2000/svg" data-name="Layer 1"><path d="m113.15 52.22c-10.34-5.71-27.66-6.17-37.58-12.42-11.79-7.41-31.47-22.29-37.59-20.91-8.02 1.81-13.58 11.38-13.58 11.38l66.66 98.23 39.36-39.31s1.81-26.42-17.27-36.97z" fill="#6d7486"/><path d="m473.78 323.69c-31.66-34.02-55.83-15.23-75.77-35.17-15.25-15.24-18.21-47.44-42.89-72.12-13.29-13.29-33.52-18.02-41.33-10.2-5.15 5.14-7.97 21.17 16.85 46.61 13.93 14.28-.26 31.61-16.86 30.13l-.39.4-57.57-9.54c1.48 16.6-16.84 31.79-31.12 17.86-25.45-24.82-41.48-22-46.62-16.85-7.82 7.81-3.08 28.05 10.2 41.33 24.68 24.68 73.66 44.42 88.9 59.66 19.94 19.94 17.92 60.89 51.94 92.55 47.81 44.47 93.51 23.56 135.11-18.04 39.09-39.09 54.03-78.81 9.55-126.62z" fill="#ff5a81"/><path d="m351.117 455.35c-34.02-31.66-32-72.61-51.94-92.55-15.24-15.24-64.22-34.98-88.9-59.66-8.972-8.972-14.038-21.116-13.975-30.462-9.224-2.832-15.385-.71-18.222 2.132-7.82 7.81-3.08 28.05 10.2 41.33 24.68 24.68 73.66 44.42 88.9 59.66 19.94 19.94 17.92 60.89 51.94 92.55 38.055 35.4 74.772 29.37 109.15 4.46-27.888 12.608-57.104 10.49-87.153-17.46z" fill="#ff83c7"/><path d="m406.71 373.66-27.62 27.62-14.17-14.63 27.16-27.16z" fill="#6d7486"/><path d="m401.15 336.75a9.675 9.675 0 0 1 0 13.67l-9.07 9.07-14.99-14.49 9.32-9.32a9.675 9.675 0 0 1 13.67 0z" fill="#6d7486"/><path d="m392.08 359.49-27.16 27.16-14.49-14.99 26.66-26.66z" fill="#555b6b"/><path d="m126.75 98.85-18.48 18.46.01.01 247.15 255.34 26.66-26.66z" fill="#c865e0"/><path d="m350.43 371.66 14.49 14.99-9.07 9.07a9.675 9.675 0 0 1 -13.67 0l-1.07-1.07a9.675 9.675 0 0 1 0-13.67z" fill="#6d7486"/><path d="m369.812 381.996h72.606v37.378h-72.606z" fill="#555b6b" transform="matrix(.707 -.707 .707 .707 -164.379 404.524)"/><path d="m427.364 294.125c-10-1.47-17.9-2.631-25.115-9.843-5.9-5.9-9.941-15.227-14.622-26.029-6.391-14.75-13.635-31.467-28.265-46.1a56 56 0 0 0 -25.545-14.6c-10.163-2.465-19.01-.863-24.271 4.4-1.912 1.911-17.683 19.7 16.8 55.05 3.88 3.977 4.926 8.194 3.027 12.193-1.948 4.1-7.264 7.943-13.874 7.828l-185.193-179.247 4.351-4.345a5.994 5.994 0 0 0 1.743-3.832c.085-1.234 1.825-30.366-20.351-42.626-5.674-3.136-12.75-4.792-19.593-6.394-6.574-1.539-13.372-3.13-17.7-5.851-2.656-1.675-5.756-3.764-9.056-5.975-17.548-11.791-26.528-17.184-33.036-15.716-10.274 2.318-16.747 13-17.452 14.211a6 6 0 0 0 .222 6.387l3.39 5-6.487 6.486-1.094-1.094a6 6 0 0 0 -8.486 8.485l11.437 11.433a6 6 0 0 0 8.485-8.485l-1.857-1.861 4.862-4.862 11.016 16.239-6.827 6.823-1.094-1.09a6 6 0 1 0 -8.486 8.485l11.437 11.437a6 6 0 1 0 8.486-8.486l-1.857-1.856 5.2-5.2 11.019 16.232-7.168 7.168-1.095-1.09a6 6 0 1 0 -8.485 8.485l11.437 11.436a6 6 0 1 0 8.485-8.485l-1.852-1.861 5.543-5.543 11.017 16.235-6.747 6.746-1.094-1.094a6 6 0 1 0 -8.485 8.485l11.436 11.437a6 6 0 0 0 8.486-8.486l-1.862-1.855 5.122-5.121 2.775 4.09a6 6 0 0 0 4.4 2.6c.19.018.38.027.569.027a6 6 0 0 0 4.239-1.755l7.9-7.885 145.651 150.493c.631 7.155-3.43 12.984-7.77 15.045-4 1.9-8.218.853-12.194-3.027-35.354-34.482-53.138-18.711-55.051-16.8-10.366 10.366-5.5 34.11 10.2 49.816 14.388 14.388 36.172 26.857 55.391 37.857 14.075 8.055 27.369 15.664 33.508 21.8 7.609 7.609 11.828 19.218 16.713 32.66 6.979 19.2 14.89 40.971 35.382 60.036 18.911 17.593 38.838 26.447 59.428 26.447a74.977 74.977 0 0 0 15.805-1.715c21.684-4.672 44-18.713 68.206-42.924 22.777-22.777 34.79-42.925 37.805-63.406 3.534-24.01-5.66-47.411-28.107-71.539-19.406-20.86-36.814-23.418-50.802-25.474zm-335.416-175-60.24-88.772c1.813-2.182 4.5-4.776 7.313-5.539 3.939.431 16.952 9.172 23.991 13.9 3.368 2.263 6.549 4.4 9.359 6.168 6.029 3.792 13.817 5.618 21.353 7.38 6.048 1.416 12.3 2.88 16.523 5.212 12.633 6.984 14.1 23.354 14.206 29.19zm29.866-12.868 246.727 238.807-18.047 18.046-238.811-246.733zm275.086 239.925-4.895 4.895-6.358-6.153 5-5a3.671 3.671 0 0 1 5.186 0l1.067 1.076a3.671 3.671 0 0 1 0 5.182zm-13.382 13.382-18.518 18.528-6.154-6.358 18.324-18.323zm35.048 10.722 17.946 17.946-42.853 42.853-17.946-17.946zm-39.411 22.44-5.818-6.011 18.805-18.8 6.011 5.818zm-33.8-7.508 5-5 6.154 6.357-4.895 4.9a3.673 3.673 0 0 1 -5.186 0l-1.07-1.07a3.667 3.667 0 0 1 0-5.186zm149.048 4.176c-2.585 17.557-13.843 36.093-34.418 56.668-22.529 22.529-42.89 35.508-62.249 39.679-22.462 4.842-43.57-2.287-64.531-21.787-18.375-17.1-25.761-37.418-32.277-55.349-5.15-14.17-10.014-27.554-19.506-37.046-7.273-7.273-20.6-14.9-36.033-23.734-18.567-10.627-39.612-22.672-52.867-35.927-11.882-11.882-14.674-28.375-10.2-32.846 2.672-2.671 15.42-5.3 38.187 16.906 7.553 7.366 17.168 9.337 25.72 5.276a26.04 26.04 0 0 0 13.071-15.087l82.706 85.45-5.136 5.136a15.666 15.666 0 0 0 0 22.156l1.069 1.07a15.686 15.686 0 0 0 22.157 0l4.757-4.757 5.818 6.011-7.684 7.683a6 6 0 0 0 0 8.486l26.431 26.431a6 6 0 0 0 8.486 0l51.338-51.338a6 6 0 0 0 0-8.485l-26.432-26.432a6 6 0 0 0 -8.485 0l-7.684 7.684-6.01-5.818 4.757-4.757a15.685 15.685 0 0 0 0-22.157l-1.07-1.069a15.684 15.684 0 0 0 -22.155 0l-5.136 5.136-51.1-49.454a25.9 25.9 0 0 0 14.279-12.779c4.062-8.553 2.09-18.168-5.276-25.72-22.206-22.766-19.577-35.515-16.9-38.186 2.168-2.168 7.132-2.636 12.957-1.223a43.658 43.658 0 0 1 19.888 11.427c13.014 13.013 19.775 28.616 25.74 42.382 4.954 11.431 9.633 22.228 17.147 29.743 10.023 10.022 21.123 11.653 31.858 13.233 13.384 1.966 27.225 4 43.764 21.778 19.806 21.288 27.99 41.443 25.021 61.616z" fill="#284268"/></svg>