<svg id="Capa_1" enable-background="new 0 0 512 512" height="24" viewBox="0 0 512 512" width="24" xmlns="http://www.w3.org/2000/svg"><g><g><circle cx="64.997" cy="223.306" fill="#407093" r="28.948"/></g><g><path d="m75.368 196.279c1.237 3.221 1.921 6.715 1.921 10.371 0 15.988-12.96 28.948-28.948 28.948-3.656 0-7.15-.684-10.371-1.921 4.171 10.863 14.695 18.577 27.027 18.577 15.988 0 28.948-12.96 28.948-28.948 0-12.331-7.714-22.855-18.577-27.027z" fill="#2b4d66"/></g><g><path d="m226.806 95.99 4.528-56.847c.249-3.128 3.854-4.748 6.359-2.858l19.016 14.353c4.904 3.701 8.443 8.923 10.063 14.849l8.78 32.107z" fill="#407093"/></g><g><path d="m236.835 50.638c4.904 3.701 8.442 8.923 10.063 14.849l8.599 31.447 20.055.66-8.78-32.107c-1.621-5.926-5.159-11.148-10.063-14.849l-19.016-14.353c-2.505-1.89-6.109-.27-6.359 2.858l-.552 6.927z" fill="#2b4d66"/></g><g><path d="m486.299 252.254h-75.564v-22.537c0-4.441 3.6-8.04 8.04-8.04h59.483c4.441 0 8.04 3.6 8.04 8.04v22.537z" fill="#407093"/></g><g><path d="m478.307 221.677h-12.944v2.614c0 5.253-4.259 9.512-9.512 9.512h-45.116v18.451h75.564v-22.585c0-4.414-3.578-7.992-7.992-7.992z" fill="#2b4d66"/></g><g><path d="m491.558 262.25v-9.725c0-2.493-2.021-4.514-4.514-4.514h-77.054c-2.493 0-4.514 2.021-4.514 4.514v9.725c0 5.052 2.076 9.883 5.741 13.361l5.969 5.663c3.665 3.478 5.741 8.308 5.741 13.361v28.953c0 4.949-1.992 9.691-5.527 13.155l-6.396 6.267c-3.535 3.464-5.527 8.205-5.527 13.155v21.971h17.45 51.182 17.45v-21.971c0-4.949-1.992-9.691-5.527-13.155l-6.396-6.267c-3.535-3.464-5.527-8.205-5.527-13.155v-28.953c0-5.052 2.076-9.883 5.741-13.361l5.969-5.663c3.664-3.478 5.739-8.308 5.739-13.361z" fill="#407093"/></g><g><path d="m108.039 262.25v-9.725c0-2.493-2.021-4.514-4.514-4.514h-77.054c-2.493 0-4.514 2.021-4.514 4.514v9.725c0 5.052 2.076 9.883 5.741 13.361l5.969 5.663c3.665 3.478 5.741 8.308 5.741 13.361v28.953c0 4.949-1.992 9.691-5.527 13.155l-6.396 6.267c-3.535 3.464-5.527 8.205-5.527 13.155v21.971h17.45 51.182 17.45v-21.971c0-4.949-1.992-9.691-5.527-13.155l-6.396-6.267c-3.535-3.464-5.527-8.205-5.527-13.155v-28.953c0-5.052 2.076-9.883 5.741-13.361l5.969-5.663c3.663-3.478 5.739-8.308 5.739-13.361z" fill="#407093"/></g><g><path d="m479.849 281.274 5.969-5.663c3.665-3.478 5.741-8.308 5.741-13.361v-9.725c0-2.493-2.021-4.514-4.514-4.514h-25.975c2.493 0 4.514 2.021 4.514 4.514v9.725c0 5.052-2.076 9.883-5.741 13.361l-5.969 5.663c-3.665 3.478-5.741 8.308-5.741 13.361v28.953c0 4.949 1.992 9.691 5.527 13.155l6.396 6.267c3.535 3.464 5.527 8.205 5.527 13.155v21.971h8.525 17.45v-21.971c0-4.949-1.992-9.691-5.527-13.155l-6.396-6.267c-3.535-3.464-5.527-8.205-5.527-13.155v-28.953c0-5.053 2.076-9.883 5.741-13.361z" fill="#2b4d66"/></g><g><path d="m96.329 281.274 5.969-5.663c3.665-3.478 5.741-8.308 5.741-13.361v-9.725c0-2.493-2.021-4.514-4.514-4.514h-25.975c2.493 0 4.514 2.021 4.514 4.514v9.725c0 5.052-2.076 9.883-5.741 13.361l-5.969 5.663c-3.665 3.478-5.741 8.308-5.741 13.361v28.953c0 4.949 1.992 9.691 5.527 13.155l6.396 6.267c3.535 3.464 5.527 8.205 5.527 13.155v21.971h8.525 17.45v-21.971c0-4.949-1.992-9.691-5.527-13.155l-6.396-6.267c-3.535-3.464-5.527-8.205-5.527-13.155v-28.953c.001-5.053 2.076-9.883 5.741-13.361z" fill="#2b4d66"/></g><g><path d="m247.042 223.121c-6.342 10.67-14.257 20.324-23.478 28.634l-16.461 14.836c-18.508 16.681-31.537 38.57-37.374 62.793l-18.629 77.306h227.305l-11.979-24.16c-10.607-21.393-14.203-45.585-10.278-69.138l14.041-84.266c11.169-67.03-31.533-131.244-97.667-146.868l-19.222-4.542c-7.604-1.796-15.608.179-21.503 5.307l-103.693 90.195c-3.674 3.195-5.068 8.285-3.536 12.906l8.249 24.886c5.268 15.894 22.991 24.395 38.265 21.24 12.938-2.672 23.062-13.359 23.238-23.694v-.861c0-12.869 12.225-22.224 24.647-18.86l22.627 6.127c5.274 1.428 10.663 1.771 15.887 1.128.73-.09 1.323.59 1.101 1.291-2.826 8.909-6.673 17.551-11.54 25.74z" fill="#407093"/></g><g><g><path d="m366.426 382.529c-10.607-21.393-14.203-45.585-10.278-69.138l14.041-84.266c11.169-67.03-31.533-131.244-97.667-146.868l-19.222-4.541c-7.604-1.796-15.608.179-21.503 5.307l-.492.428c63.481 17.467 103.943 80.224 93.036 145.675l-14.041 84.265c-3.925 23.553-.328 47.745 10.278 69.138l11.979 24.16h45.847z" fill="#2b4d66"/></g></g><g><path d="m69.591 368.148h-52.196c-5.49 0-9.94 4.45-9.94 9.94v50.592l4.97 16.55h57.166z" fill="#2b4d66"/></g><g><path d="m69.591 368.148h62.136v77.081h-62.136z" fill="#dae7ef"/></g><g><path d="m131.727 368.148h62.136v77.081h-62.136z" fill="#2b4d66"/></g><g><path d="m193.864 368.148h62.136v77.081h-62.136z" fill="#dae7ef"/></g><g><path d="m256 368.148h62.136v77.081h-62.136z" fill="#2b4d66"/></g><g><path d="m318.136 368.148h62.136v77.081h-62.136z" fill="#dae7ef"/></g><g><path d="m380.273 368.148h62.136v77.081h-62.136z" fill="#2b4d66"/></g><g><path d="m494.605 368.148h-52.196v77.081h57.166l4.97-16.55v-50.592c0-5.488-4.45-9.939-9.94-9.939z" fill="#dae7ef"/></g><g><path d="m494.605 368.148h-15.733v71.388c0 2.119-.669 4.08-1.799 5.693h22.502l4.97-16.55v-50.592c0-5.488-4.45-9.939-9.94-9.939z" fill="#c1d5e4"/></g><g><path d="m494.545 476.517h-477.09c-5.523 0-10-4.477-10-10v-37.837h497.09v37.837c0 5.523-4.477 10-10 10z" fill="#c67d66"/></g><g><path d="m478.872 428.68v10.857c0 5.49-4.45 9.94-9.94 9.94h-461.477v17.101c0 5.49 4.45 9.94 9.94 9.94h477.211c5.49 0 9.94-4.45 9.94-9.94v-37.898z" fill="#be694f"/></g><g><path d="m125.74 213.355c6.371 19.221 26.523 29.056 46.174 25.991 19.652-3.065 29.86-14.121 29.86-30.79-.714-8.037 7.481-14.862 15.244-12.526l22.626 6.127c2.886.781 5.803 1.295 8.739 1.539-2.19 5.398-4.782 10.622-7.749 15.615-5.964 10.035-13.387 19.088-22.06 26.905l-16.461 14.835c-12.197 10.992-22.106 24.014-29.45 38.701-1.841 3.683-.349 8.161 3.333 10.002 3.603 1.826 8.154.385 10.002-3.333 6.508-13.016 15.288-24.553 26.096-34.294l16.462-14.835c9.788-8.823 18.164-19.038 24.895-30.363 5.381-9.055 9.666-18.778 12.735-28.901.746-2.462.171-5.134-1.523-7.07-1.694-1.937-4.266-2.866-6.805-2.451-4.806.781-9.623.532-14.316-.741l-22.628-6.127c-8.178-2.215-16.73-.531-23.461 4.619-6.73 5.149-10.589 12.964-10.589 21.438-.236 24.846-41.772 22.325-46.972.97l-8.249-24.887c-.588-1.772-.057-3.71 1.352-4.935l99.441-86.497c1.472-1.281 2.384-3.088 2.538-5.033l3.286-41.259 13.956 10.534c3.569 2.694 6.184 6.552 7.363 10.866l4.505 16.475c.804 3.139 3.608 5.131 6.721 5.582 12.959 3.063 25.21 8.157 36.413 15.144 3.493 2.176 8.092 1.113 10.27-2.381 2.179-3.493 1.113-8.092-2.381-10.271-11.692-7.291-24.393-12.746-37.799-16.238l-3.348-12.244c-2.044-7.476-6.576-14.164-12.763-18.834l-19.016-14.353c-3.33-2.513-7.764-3.011-11.572-1.304-3.807 1.711-6.378 5.358-6.709 9.52l-3.548 44.544-97.145 84.498c-5.96 5.185-8.205 13.38-5.719 20.877z"/><path d="m499.013 361.281v-5.117c0-6.908-2.83-13.644-7.765-18.479-3.471-3.644-10.18-8.348-9.685-14.097v-28.954c-.478-5.685 5.854-10.114 9.386-13.617 5.125-4.862 8.064-11.703 8.064-18.768v-9.724c0-4.115-2.088-7.75-5.259-9.906v-12.951c0-5.598-3.004-10.495-7.474-13.204v-8.858c0-4.118-3.338-7.455-7.455-7.455s-7.455 3.337-7.455 7.455v6.616h-15.398v-6.616c0-4.118-3.338-7.455-7.455-7.455s-7.455 3.337-7.455 7.455v6.616h-15.399v-6.616c0-4.118-3.338-7.455-7.455-7.455s-7.455 3.337-7.455 7.455v8.858c-4.47 2.71-7.474 7.607-7.474 13.204v12.951c-3.171 2.155-5.259 5.791-5.259 9.905v9.724c0 7.066 2.94 13.907 8.064 18.768 3.543 3.517 9.855 7.92 9.386 13.617v28.954c.506 5.733-6.228 10.471-9.686 14.097-4.934 4.835-7.764 11.571-7.764 18.479v4.529h-32.023c-4.174-14.931-5.045-30.784-2.497-46.078l14.041-84.265c7.013-42.087-5.639-84.172-34.71-115.463-2.802-3.018-7.519-3.189-10.536-.388-3.016 2.802-3.19 7.52-.387 10.536 25.901 27.88 37.173 65.373 30.926 102.865l-14.041 84.265c-2.679 16.077-2.039 32.691 1.803 48.528h-180.745l5.728-23.769c.965-4.002-1.498-8.03-5.5-8.993-4.002-.966-8.029 1.498-8.994 5.501l-6.57 27.262h-39.021v-4.529c0-6.908-2.83-13.644-7.765-18.479l-6.395-6.267c-2.091-2.049-3.29-4.903-3.29-7.831v-28.954c-.478-5.685 5.854-10.114 9.386-13.617 5.125-4.862 8.064-11.703 8.064-18.768v-9.724c0-6.6-5.369-11.97-11.97-11.97h-6.46c2.808-5.218 4.336-11.122 4.336-17.25 0-20.073-16.33-36.403-36.403-36.403s-36.403 16.33-36.403 36.403c0 6.126 1.53 12.031 4.338 17.25h-6.462c-6.6 0-11.969 5.37-11.969 11.97v9.724c0 7.066 2.94 13.907 8.064 18.768 3.543 3.517 9.854 7.92 9.386 13.617v28.954c0 2.928-1.199 5.781-3.29 7.831l-6.396 6.267c-4.934 4.835-7.764 11.571-7.764 18.479v4.79c-8.216 1.385-14.501 8.531-14.501 17.134v88.489c0 9.591 7.803 17.395 17.395 17.395h100.595c4.117 0 7.455-3.337 7.455-7.455s-3.338-7.455-7.455-7.455h-100.595c-1.37 0-2.485-1.114-2.485-2.485v-30.443h482.18v30.443c0 1.371-1.115 2.485-2.485 2.485h-341.603c-4.117 0-7.455 3.337-7.455 7.455s3.338 7.455 7.455 7.455h341.604c9.591 0 17.395-7.803 17.395-17.395v-88.489c-.001-8.066-5.528-14.847-12.988-16.807zm-80.823-131.612c0-.296.241-.537.537-.537h59.58c.296 0 .537.241.537.537v10.887h-60.654zm-5.259 126.496c-.506-5.734 6.228-10.471 9.685-14.097 4.934-4.835 7.765-11.571 7.765-18.479v-28.954c0-7.064-2.939-13.905-8.064-18.768-3.543-3.517-9.855-7.919-9.386-13.617v-6.784h71.173v6.784c.478 5.685-5.854 10.114-9.386 13.617-5.125 4.863-8.064 11.704-8.064 18.768v28.954c0 6.908 2.83 13.644 7.765 18.479 3.471 3.644 10.18 8.349 9.685 14.097v4.529h-71.173zm-40.113 19.438v45.621h-47.227v-45.621zm14.91 0h47.226v45.621h-47.226zm-77.047 0v45.621h-47.227v-45.621zm-293.286 0h44.741v45.621h-47.226v-43.136c0-1.37 1.115-2.485 2.485-2.485zm59.651 0h47.227v45.621h-47.227zm62.136 0h47.227v45.621h-47.227zm62.137 0h47.226v45.621h-47.226zm-157.815-152.297c0-11.851 9.642-21.493 21.493-21.493s21.493 9.642 21.493 21.493c0 6.833-3.223 13.194-8.674 17.25h-25.635c-5.452-4.055-8.677-10.418-8.677-17.25zm-10.803 125.028 6.396-6.267c4.934-4.835 7.764-11.571 7.764-18.479v-28.954c0-7.065-2.939-13.905-8.064-18.768l-5.969-5.665c-4.145-3.381-3.42-10-3.416-14.736h71.173c.002 4.749.73 11.345-3.417 14.737l-5.969 5.664c-5.125 4.863-8.064 11.704-8.064 18.768v28.954c0 6.908 2.83 13.644 7.765 18.479 3.471 3.644 10.18 8.349 9.685 14.097v4.529h-71.174v-4.529c0-2.927 1.2-5.781 3.29-7.83zm417.163 72.891v-45.621h44.742c1.37 0 2.485 1.114 2.485 2.485v43.136z"/></g></g></svg>