<svg height="24" viewBox="0 0 128 128" width="24" xmlns="http://www.w3.org/2000/svg"><g><g><path d="m64 121.5a27.613 27.613 0 0 1 -27.528-25.2c-.572-6.611-.972-14.454-.972-23.454 0-31.346 4.874-48.654 4.874-48.654h47.255s4.871 17.308 4.871 48.654c0 9-.4 16.843-.975 23.451a27.613 27.613 0 0 1 -27.525 25.203z" fill="#fd637b"/><circle cx="87.614" cy="26.438" fill="#e8b5ad" r="5.136"/><circle cx="40.386" cy="26.438" fill="#e8b5ad" r="5.136"/><circle cx="64" cy="29.219" fill="#ffd5c8" r="22.719"/></g><g fill="#2c0d12"><path d="m50.53 108.564a1.75 1.75 0 0 0 -2.363 2.582 23.211 23.211 0 0 0 5.618 3.8 1.75 1.75 0 1 0 1.516-3.155 19.71 19.71 0 0 1 -4.771-3.227z"/><path d="m94.5 26.44a6.828 6.828 0 0 0 -7.982-6.792 24.467 24.467 0 0 0 -45.036 0 6.828 6.828 0 0 0 -7.982 6.792 6.838 6.838 0 0 0 3.374 5.9 238.756 238.756 0 0 0 -3.124 40.51c0 8.149.329 16.089.977 23.6a29.407 29.407 0 0 0 37.964 25.491 1.749 1.749 0 1 0 -1.033-3.343 25.91 25.91 0 0 1 -33.444-22.45c0-.029 0-.06-.007-.09 10.911 6.58 34.842 14.52 43.016 17.137a26.229 26.229 0 0 1 -3.179 2.421 1.75 1.75 0 0 0 1.9 2.941 29.151 29.151 0 0 0 13.329-22.107c.648-7.511.977-15.451.977-23.6a238.774 238.774 0 0 0 -3.124-40.512 6.837 6.837 0 0 0 3.374-5.898zm-3.5 0a3.375 3.375 0 0 1 -2.374 3.227c-.056.018-.119.028-.178.043 0-.164.021-.326.021-.491a24.418 24.418 0 0 0 -.787-6.162 3.391 3.391 0 0 1 3.318 3.383zm-28.035-18.14a3.792 3.792 0 0 1 3.279 3.745 2.691 2.691 0 0 1 -2.688 2.688 1.8 1.8 0 0 1 -1.8-1.8 1.75 1.75 0 0 0 -3.5 0 5.307 5.307 0 0 0 5.3 5.3 6.2 6.2 0 0 0 6.188-6.188 7.211 7.211 0 0 0 -.754-3.172 20.964 20.964 0 0 1 14.71 27.54 1.75 1.75 0 0 0 3.288 1.2 24.286 24.286 0 0 0 .921-3.283c.678 4.119 1.369 9.311 1.9 15.55-4.309 4.659-10.563 8.694-18.633 11.991-2.126.871-4.376 1.678-6.682 2.418-9.828-3.159-19.956-8.007-26.222-15.377.517-5.79 1.169-10.643 1.809-14.54a24.475 24.475 0 0 0 36.128 16.057 1.75 1.75 0 1 0 -1.749-3.029 20.961 20.961 0 1 1 -11.495-39.1zm-25.065 45.292c15.5 15.18 45.469 18.964 52.846 19.678-.009 6.16-.211 12.188-.6 18-7.858-1.107-39.146-6.295-52.885-20.302.039-6.407.276-12.214.639-17.376zm32.376 12.385c.754-.281 1.5-.569 2.225-.867a58.819 58.819 0 0 0 17.656-10.664c.306 4.615.517 9.712.575 15.3a141.353 141.353 0 0 1 -20.456-3.769zm-29.958-42.92a24.418 24.418 0 0 0 -.787 6.162c0 .164.009.325.012.488-.061-.015-.125-.026-.184-.045a3.382 3.382 0 0 1 .959-6.6zm43.628 87.33c-6.146-1.945-36.746-11.834-46.067-18.722-.35-5.159-.547-10.5-.6-15.942 15.7 13.344 45.194 18.053 52.61 19.05-.037.456-.064.923-.1 1.375a25.645 25.645 0 0 1 -5.843 14.239z"/><path d="m79.01 46.363a1.751 1.751 0 0 0 2.475-.027 24.734 24.734 0 0 0 2.411-2.87 1.75 1.75 0 0 0 -2.844-2.041 21.134 21.134 0 0 1 -2.068 2.463 1.75 1.75 0 0 0 .026 2.475z"/><path d="m58.594 38.892a1.75 1.75 0 0 0 -3.355 1c1.212 4.065 5.273 5.884 8.761 5.884s7.549-1.819 8.761-5.884a1.75 1.75 0 1 0 -3.355-1c-.7 2.337-3.217 3.383-5.406 3.383s-4.71-1.046-5.406-3.383z"/><path d="m68.8 28.714a1.752 1.752 0 0 0 2.388-.651 2.272 2.272 0 0 1 4.041 0 1.751 1.751 0 0 0 3.04-1.737 5.771 5.771 0 0 0 -10.12 0 1.75 1.75 0 0 0 .651 2.388z"/><path d="m50.382 28.714a1.752 1.752 0 0 0 2.388-.651 2.272 2.272 0 0 1 4.041 0 1.75 1.75 0 0 0 3.039-1.737 5.771 5.771 0 0 0 -10.12 0 1.751 1.751 0 0 0 .652 2.388z"/></g></g></svg>