<svg id="Capa_1" enable-background="new 0 0 512 512" height="24" viewBox="0 0 512 512" width="24" xmlns="http://www.w3.org/2000/svg"><g><g><path clip-rule="evenodd" d="m328.188 361.169h41.467c2.784 0 5.07-2.286 5.07-5.07 0-67.756 0-135.483 0-203.21 0-2.784-2.286-5.07-5.07-5.07h-41.467l-14.565 106.675z" fill="#eff6ff" fill-rule="evenodd"/></g><g><path clip-rule="evenodd" d="m340.438 38.711c-49.351 0-86.569 40.501-89.763 89.765 1.026 11.781 19.019 41.732 27.166 42.465l50.347-23.123v-39.446c0-15.386 12.572-27.958 27.958-27.958h26.492l13.188-18.61-13.188-23.093z" fill="#fde588" fill-rule="evenodd"/></g><g><path clip-rule="evenodd" d="m249.825 167.103-.703 32.559c-.176 15.679 10.931 16.177 20.866 19.254l23.562 7.327 34.639-7.327v-71.097h-58.201c-7.503 0-20.104 5.803-20.163 19.284z" fill="#7e707d" fill-rule="evenodd"/></g><g><path clip-rule="evenodd" d="m382.638 38.711v41.703c0 3.722 3.077 7.151 6.799 6.799l94.393-9.173c3.693-.381 4.66-3.751 6.799-6.799l13.363-19.137c2.139-3.077-3.077-6.359-6.799-6.799l-107.756-13.393c-3.722-.469-6.799 3.048-6.799 6.799z" fill="#eff6ff" fill-rule="evenodd"/></g><g><path clip-rule="evenodd" d="m180.811 280.02-67.549 27.108-24.441 82.38c6.887 12.016 13.129 23.68 18.58 32.559 11.576 20.163 23.034 39.153 44.369 53.25 78.305 51.726 176.42-12.221 176.42-102.455v-11.693-35.578-35.549l-40.295-33.878-41.116 52.81-.527 24.705c-.41 19.225-22.36 29.922-35.108 5.099l-26.434-51.433c-1.262-2.46-2.581-4.922-3.899-7.325z" fill="#fde588" fill-rule="evenodd"/></g><g><path clip-rule="evenodd" d="m231.333 290.043c0 9.349 6.623 17.144 15.444 18.932 1.26.264 2.55.381 3.898.381 10.667 0 19.312-8.645 19.312-19.313s-8.645-19.313-19.312-19.313c-1.055 0-2.081.059-3.077.234-9.202 1.466-16.265 9.437-16.265 19.079z" fill="#fe8d94" fill-rule="evenodd"/></g><g><path clip-rule="evenodd" d="m45.214 51.196 74.026-13.745v-19.811c0-3.224-2.637-5.334-5.832-4.748l-62.363 11.606c-3.194.586-5.832 3.693-5.832 6.887v19.811z" fill="#85beef" fill-rule="evenodd"/></g><g><path clip-rule="evenodd" d="m8.201 116.402c0 8.118 8.293 13.1 18.521 11.107 10.198-1.993 18.492-10.169 18.492-18.287s-8.293-13.1-18.492-11.107c-10.228 1.993-18.521 10.17-18.521 18.287z" fill="#85beef" fill-rule="evenodd"/></g><g><path clip-rule="evenodd" d="m82.227 86.569c0 8.118 8.293 13.1 18.492 11.107 10.228-1.993 18.521-10.169 18.521-18.287s-8.293-13.1-18.521-11.107c-10.199 1.992-18.492 10.169-18.492 18.287z" fill="#85beef" fill-rule="evenodd"/></g><g><path clip-rule="evenodd" d="m299.088 105.295v42.524h29.1v-39.446c0-15.386 12.572-27.958 27.958-27.958h26.492v-18.61h-31.914c-32.148 0-51.636 28.104-51.636 43.49z" fill="#fdd76f" fill-rule="evenodd"/></g><g><path clip-rule="evenodd" d="m299.088 353.491c-5.949 84.461-23.738 106.851-60.838 136.978 49.585-12.69 89.939-59.726 89.939-117.607v-82.82h-29.1v63.449z" fill="#fdd76f" fill-rule="evenodd"/></g><g><path clip-rule="evenodd" d="m250.675 128.477c-10.667 0-19.342 8.645-19.342 19.342 0 10.374 8.206 18.873 18.492 19.284l.85.029c10.667 0 19.312-8.645 19.312-19.313.001-10.697-8.645-19.342-19.312-19.342z" fill="#fe8d94" fill-rule="evenodd"/></g><g><path clip-rule="evenodd" d="m299.088 147.819h29.1v71.097h-29.1z" fill="#6a5c6b" fill-rule="evenodd"/></g><g><path clip-rule="evenodd" d="m134.947 224.748-55.915 41.234-33.291 68.606c15.796 9.759 30.507 32.97 43.079 54.92l91.99-109.489c-15.414-28.28-34.17-53.014-45.863-55.271z" fill="#eff6ff" fill-rule="evenodd"/></g><g><path clip-rule="evenodd" d="m101.51 197.61-89.206 109.84c-7.444 9.173-6.037 22.83 3.136 30.274 9.202 7.473 21.921 5.246 30.302-3.136l89.206-109.84c7.444-9.173 6.037-22.83-3.136-30.274-9.202-7.472-22.829-6.066-30.302 3.136z" fill="#fde588" fill-rule="evenodd"/></g><g><path clip-rule="evenodd" d="m248.301 238.112-.703 32.852c.996-.176 2.022-.234 3.077-.234 10.667 0 19.312 8.645 19.312 19.313h58.201v-35.549-35.578h-58.201c-10.315 0-21.217 8.47-21.686 19.196z" fill="#7e707d" fill-rule="evenodd"/></g><g><path clip-rule="evenodd" d="m249.122 199.662c-9.935.791-17.789 9.114-17.789 19.254 0 9.876 7.414 18.023 16.968 19.196.791.088 1.582.147 2.374.147 10.667 0 19.312-8.645 19.312-19.342 0-10.668-8.645-19.313-19.312-19.313-.527-.001-1.026.029-1.553.058z" fill="#fe8d94" fill-rule="evenodd"/></g><g><path clip-rule="evenodd" d="m299.088 218.916v35.578 35.549h29.1v-35.549-35.578z" fill="#6a5c6b" fill-rule="evenodd"/></g><g><path clip-rule="evenodd" d="m205.779 390.036c-13.598 7.854-18.257 25.262-10.403 38.86 7.854 13.627 25.261 18.287 38.859 10.433 13.598-7.883 18.287-25.262 10.403-38.89-7.854-13.597-25.232-18.257-38.859-10.403z" fill="#fe8d94" fill-rule="evenodd"/></g><g><path clip-rule="evenodd" d="m348.321 356.099c0 2.784-2.286 5.07-5.07 5.07h26.404c2.784 0 5.07-2.286 5.07-5.07 0-67.756 0-135.483 0-203.21 0-2.784-2.286-5.07-5.07-5.07h-26.404c2.784 0 5.07 2.286 5.07 5.07z" fill="#d9eeff" fill-rule="evenodd"/></g><g><path clip-rule="evenodd" d="m101.51 197.61-14.975 18.434c7.737-6.242 19.107-6.477 27.108.029 5.744 4.66 8.44 11.723 7.854 18.58-.352 4.161-1.905 8.264-4.718 11.723.176.029.352.059.527.088l17.642-21.716c7.444-9.173 6.037-22.83-3.136-30.274-9.202-7.472-22.829-6.066-30.302 3.136z" fill="#fdd76f" fill-rule="evenodd"/></g><g><path clip-rule="evenodd" d="m117.305 246.464c10.052 2.462 25.056 20.778 38.683 43.52 2.286 3.751 4.513 7.649 6.682 11.635l18.14-21.599c-15.415-28.281-34.17-53.015-45.863-55.272z" fill="#d9eeff" fill-rule="evenodd"/></g><g><path clip-rule="evenodd" d="m166.568 308.975 13.188 25.702c11.634 22.595 30.683 27.988 48.384 18.522-5.861-.586-12.103-4.894-16.997-14.419l-26.434-51.433c-1.26-2.462-2.579-4.923-3.898-7.327l-18.14 21.599c1.318 2.432 2.608 4.865 3.897 7.356z" fill="#fdd76f" fill-rule="evenodd"/></g><g><path clip-rule="evenodd" d="m382.638 61.805v18.61c0 3.722 3.077 7.151 6.799 6.799l94.393-9.173c3.693-.381 4.66-3.751 6.799-6.799l13.363-19.137c2.139-3.077-3.077-6.359-6.799-6.799l-11.869-1.495-6.858 9.788c-2.11 3.048-3.253 8.206-6.975 8.206z" fill="#d9eeff" fill-rule="evenodd"/></g><g><path clip-rule="evenodd" d="m482.6 386.402-43.46 11.576c-3.312.879-6.008 4.484-6.008 8.03v7.708 14.126l49.468-13.159c3.312-.879 6.008-4.484 6.008-8.03v-15.415c-.001-3.546-2.697-5.715-6.008-4.836z" fill="#85beef" fill-rule="evenodd"/></g><g><path clip-rule="evenodd" d="m433.132 482.703c0-9.114-8.674-16.499-19.371-16.499s-19.371 7.385-19.371 16.499 8.674 16.5 19.371 16.5c10.696-.001 19.371-7.386 19.371-16.5z" fill="#85beef" fill-rule="evenodd"/></g><g><path d="m7.341 130.467c3.959 3.262 9.218 4.981 14.959 4.981 1.91-.001 3.875-.19 5.861-.578 13.768-2.69 24.553-13.956 24.553-25.648v-51.791l59.026-10.96v14.691c-3.827-.986-8.085-1.092-12.456-.241-.001 0-.003 0-.004.001-13.768 2.69-24.553 13.956-24.553 25.647 0 5.545 2.36 10.542 6.645 14.071 3.957 3.259 9.208 4.974 14.934 4.974 1.907 0 3.866-.189 5.847-.577 13.786-2.686 24.586-13.952 24.586-25.649v-41.792s0-.002 0-.003v-19.954c0-.266-.015-.529-.042-.788-.208-3.435-1.748-6.587-4.327-8.737-2.809-2.34-6.571-3.287-10.334-2.595l-62.344 11.602c-6.716 1.232-11.978 7.498-11.978 14.264v19.665.003 39.939c-3.822-.984-8.071-1.089-12.431-.237-13.784 2.688-24.582 13.952-24.582 25.647 0 5.542 2.359 10.538 6.64 14.065zm91.94-40.152c-4.084.8-7.002-.124-8.373-1.254-.817-.673-1.182-1.441-1.182-2.493 0-4.011 5.316-9.536 12.431-10.927 4.106-.799 7.032.127 8.405 1.258.815.671 1.179 1.439 1.179 2.489-.001 4.013-5.328 9.538-12.46 10.927zm-46.568-58.5 59.026-10.983v10.384l-59.026 10.96zm-24.556 73.661c.001 0 .003 0 .004-.001 1.07-.209 2.06-.3 2.965-.3 2.542 0 4.397.721 5.408 1.554.817.673 1.182 1.441 1.182 2.493 0 4.011-5.316 9.537-12.426 10.927-4.104.798-7.036-.124-8.41-1.258-.815-.671-1.179-1.439-1.179-2.489-.001-4.011 5.326-9.536 12.456-10.926z"/><path d="m511.077 46.424c-2.296-5.101-8.351-8.016-12.959-8.56l-107.743-13.393c-3.73-.465-7.382.683-10.285 3.242-1.136 1.002-2.1 2.192-2.871 3.499h-36.78c-13.829 0-27.09 2.907-39.415 8.642-3.755 1.747-5.382 6.208-3.635 9.963 1.27 2.731 3.977 4.338 6.804 4.338 1.059 0 2.136-.226 3.159-.702 10.328-4.805 21.46-7.242 33.088-7.242h34.701v26.704h-18.993c-19.551 0-35.458 15.906-35.458 35.458v31.947h-44.275c-2.491-8.553-9.124-15.354-17.573-18.065 2.385-17.62 9.579-34.22 20.63-47.321 2.671-3.166 2.269-7.898-.896-10.568-3.167-2.67-7.896-2.269-10.568.896-13.222 15.675-21.695 35.588-24.229 56.618-11.468 3.053-19.943 13.523-19.943 25.939 0 11.823 7.704 21.875 18.358 25.431l-.44 20.382c-10.426 3.683-17.918 13.623-17.918 25.283 0 11.268 6.982 20.93 16.844 24.903l-.461 21.531c-9.619 4.081-16.383 13.613-16.383 24.693 0 10.671 6.274 19.903 15.33 24.216l-.411 19.261c-.145 6.792-3.993 11.214-7.718 12.072-4.455 1.025-9.4-2.799-13.222-10.242l-26.435-51.432c-.805-1.566-9.296-16.958-12.86-22.733-9.045-14.653-21.344-31.903-33.13-39.771 1.56-4.157 2.155-8.658 1.682-13.223-.801-7.738-4.541-14.677-10.531-19.539-6.006-4.878-13.571-7.127-21.299-6.323-7.732.8-14.676 4.548-19.552 10.553l-89.209 109.842c0 .001-.001.002-.002.003-10.086 12.43-8.186 30.742 4.232 40.821 5.148 4.18 11.301 6.229 17.573 6.229 6.099 0 12.306-1.944 17.804-5.748 15.768 12.604 30.986 39.772 43.416 61.972 4.067 7.264 7.91 14.126 11.446 19.895 13.025 22.68 24.745 41.184 46.685 55.68 19.052 12.586 39.74 19.219 61.485 19.717.846.02 1.689.029 2.536.029 19.143-.001 38.435-4.947 55.947-14.367 41.996-22.59 68.084-66.307 68.084-114.092v-4.194h33.968c6.931 0 12.569-5.638 12.569-12.569v-203.21c0-6.931-5.638-12.569-12.569-12.569h-33.968v-31.947c0-11.28 9.178-20.459 20.459-20.459h21.091c.725 1.206 1.615 2.318 2.674 3.282 2.537 2.307 5.684 3.542 8.987 3.541.419 0 .841-.02 1.265-.06l94.437-9.177c6.574-.678 9.417-5.433 11.116-8.276.366-.612.712-1.19 1.062-1.689l13.371-19.15c2.088-3.001 2.426-6.632.928-9.961zm-272.244 101.395c0-6.53 5.312-11.843 11.842-11.843 6.513 0 11.813 5.313 11.813 11.843 0 6.513-5.299 11.813-11.813 11.813-6.53 0-11.842-5.3-11.842-11.813zm0 71.097c0-6.514 5.312-11.814 11.842-11.814 6.513 0 11.813 5.299 11.813 11.814 0 6.53-5.299 11.843-11.813 11.843-6.53 0-11.842-5.313-11.842-11.843zm0 71.127c0-6.514 5.312-11.814 11.842-11.814 6.513 0 11.813 5.299 11.813 11.814 0 6.513-5.299 11.813-11.813 11.813-6.53 0-11.842-5.3-11.842-11.813zm-198.649 39.493c-5.097 4.918-13.434 7.714-20.019 2.365-5.999-4.867-6.914-13.714-2.04-19.721l89.207-109.841c2.35-2.894 5.707-4.702 9.452-5.09 3.75-.376 7.404.694 10.302 3.049 2.879 2.337 4.677 5.688 5.065 9.437.388 3.752-.686 7.405-3.025 10.285zm280.505 43.327c0 42.256-23.064 80.912-60.19 100.883-34.154 18.371-72.278 16.664-104.596-4.685-19.219-12.698-29.957-29.752-41.999-50.726-.036-.063-.073-.126-.111-.188-3.396-5.533-7.187-12.304-11.201-19.473-1.526-2.725-3.093-5.523-4.697-8.358l33.479-40.389c2.643-3.188 2.201-7.916-.988-10.56-3.187-2.643-7.915-2.201-10.56.988l-29.946 36.124c-9.956-16.663-21.141-33.028-33.358-43.269l80.689-99.354c7.873 5.271 21.197 21.724 34.522 45.244l-27.219 31.861c-2.69 3.149-2.318 7.883.83 10.574 1.413 1.207 3.145 1.798 4.868 1.798 2.118 0 4.222-.892 5.706-2.628l23.416-27.409 25.138 48.909c6.127 11.93 15.201 18.579 24.95 18.579 1.645 0 3.31-.189 4.983-.575 11.113-2.561 19.067-13.404 19.344-26.368l.367-17.213c10.648-1.371 19.355-9.007 22.296-19.084h44.277zm0-90.319h-44.277c-2.836-9.715-11.03-17.162-21.156-18.914l.393-18.343c9.948-1.877 17.969-9.268 20.765-18.872h44.275zm0-71.127h-44.277c-2.693-9.226-10.217-16.405-19.64-18.605l.41-18.983c9.232-2.31 16.577-9.418 19.23-18.51h44.277zm46.538 142.253h-31.539v-20.579h31.539zm0-35.578h-31.539v-20.549h31.539zm0-35.548h-31.539v-20.55h31.539zm0-35.55h-31.539v-20.579h31.539zm0-91.675v56.098h-31.539v-56.098zm117.264-88.387c-.654.934-1.183 1.816-1.648 2.596-.215.359-.477.797-.7 1.143l-92.005 8.94v-40.055l104.408 12.978z"/><path d="m202.029 383.543c-8.312 4.799-14.257 12.553-16.74 21.831-2.483 9.277-1.207 18.963 3.59 27.268 4.799 8.326 12.551 14.282 21.831 16.771 3.099.831 6.244 1.242 9.369 1.242 6.226 0 12.373-1.634 17.909-4.832.003-.002.006-.004.01-.006 17.159-9.948 23.051-31.989 13.136-49.128-9.904-17.147-31.931-23.044-49.105-13.146zm28.451 49.294c-4.841 2.796-10.484 3.537-15.886 2.088-5.407-1.45-9.924-4.922-12.725-9.78-2.797-4.842-3.54-10.487-2.093-15.893 1.448-5.407 4.912-9.925 9.747-12.718 3.293-1.898 6.891-2.8 10.445-2.8 7.248 0 14.304 3.754 18.178 10.461 5.779 9.989 2.339 22.836-7.666 28.642z"/><path d="m491.344 381.159c-2.971-2.286-6.86-3.016-10.675-2.004l-43.453 11.574c-6.604 1.752-11.584 8.321-11.584 15.278v55.172c-3.582-1.583-7.611-2.477-11.871-2.477-14.816 0-26.87 10.766-26.87 23.999s12.054 23.998 26.87 23.998 26.87-10.766 26.87-23.998c0-.346 0-49.096 0-49.096l43.895-11.676c6.602-1.754 11.581-8.323 11.581-15.278v-15.415c0-4.075-1.736-7.749-4.763-10.077zm-77.583 110.544c-6.435 0-11.871-4.121-11.871-8.999 0-4.879 5.436-9 11.871-9s11.871 4.122 11.871 9-5.436 8.999-11.871 8.999zm66.802-84.238-39.932 10.621v-4.371c0-.007-.001-.013-.001-.013v-7.665c.027-.238.32-.684.545-.84l39.933-10.637.001 12.063c-.028.239-.322.686-.546.842z"/></g></g></svg>