<?xml version="1.0" encoding="iso-8859-1"?>
<!-- Generator: Adobe Illustrator 19.0.0, SVG Export Plug-In . SVG Version: 6.00 Build 0)  -->
<svg version="1.1" id="Capa_1" xmlns="http://www.w3.org/2000/svg" xmlns:xlink="http://www.w3.org/1999/xlink" x="0px" y="0px"
	 viewBox="0 0 512 512" height="24" style="enable-background:new 0 0 512 512;" width="24" xml:space="preserve">
<polygon style="fill:#0481BF;" points="275.052,121.091 334.653,121.091 327.193,102.482 273.25,102.482 273.25,118.954 "/>
<path style="fill:#FFD5B3;" d="M374.784,128.767H342.73c-2.75,0-5.837-2.089-6.86-4.641l-1.217-3.035h-57.326
	c0.171,1.163,0.393,2.316,0.644,3.462l20.714,24.571c3.748,0.602,7.476,1.712,11.087,3.392c6.202,2.886,11.355,7.098,15.299,12.133
	c20.24,1.111,40.062-9.916,49.152-29.368c1.074-2.298,1.955-4.637,2.662-6.996C376.244,128.586,375.536,128.767,374.784,128.767z"/>
<g>
	<path style="fill:#2D458A;" d="M348.313,314.635l-55.54-26.676l-8.874,18.989l36.362,16.918c7.48,3.48,12.767,13.026,11.749,21.214
		l-11.393,91.628c-0.28,2.253-1.071,4.385-2.223,6.304h20.802c4.932-2.545,8.677-7.438,9.359-13.028l11.462-93.965
		C361.017,327.829,355.75,318.206,348.313,314.635z"/>
	<path style="fill:#2D458A;" d="M320.26,323.866l-36.362-16.918l-0.001,0.001l-22.932-10.67H236.12c0.001,0,0.001-0.001,0.001-0.001
		c-1.41,0.855-3.06,1.357-4.832,1.357H212.64c-5.149,0-9.325-4.165-9.325-9.304v-5.939c-0.662,0.855-1.247,1.787-1.722,2.805
		l-2.87,6.141c-3.493,7.474-0.23,16.437,7.249,19.917l72.976,33.954c7.48,3.48,12.767,13.026,11.749,21.214l-8.739,70.285
		c-0.28,2.253-0.019,4.385,0.655,6.304h35.78c1.151-1.919,1.942-4.051,2.223-6.304l11.393-91.628
		C333.027,336.893,327.74,327.347,320.26,323.866z"/>
</g>
<path style="opacity:0.1;fill:#2F003A;enable-background:new    ;" d="M315.974,441.051c-8.25,0-14.167-6.698-13.149-14.886
	l8.739-70.285c1.018-8.188-4.269-17.733-11.749-21.214l-72.976-33.954c-1.666-0.775-3.109-1.834-4.329-3.076h-9.87
	c-5.149,0-9.325-4.165-9.325-9.304v-5.936c-0.661,0.854-1.247,1.784-1.722,2.802l-2.87,6.141c-3.493,7.474-0.23,16.437,7.249,19.917
	l72.976,33.954c7.48,3.48,12.767,13.026,11.749,21.214l-8.739,70.285c-0.28,2.253-0.019,4.385,0.655,6.304H318.4
	c0.379-0.632,0.724-1.284,1.018-1.961h-3.444V441.051z"/>
<path style="fill:#5E9900;" d="M368.956,443.012h-27.974c2.75,0,5,2.25,5,5v13.608h27.974v-13.608
	C373.956,445.262,371.706,443.012,368.956,443.012z"/>
<path style="fill:#F07C3C;" d="M298.685,149.124c2.735,0.439,5.458,1.156,8.133,2.164v-30.197h-29.492
	c0.171,1.163,0.393,2.316,0.644,3.462L298.685,149.124z"/>
<path style="fill:#5E9900;" d="M216.918,197.398c2.003-12.125,12.796-21.548,25.105-21.92l10.874-0.329l1.113-2.381
	c8.11-17.354,26.624-26.543,44.676-23.644l-37.541-44.529c-0.805-0.954-1.961-1.547-3.208-1.644c-0.12-0.009-0.24-0.014-0.36-0.014
	c-1.122,0-2.211,0.404-3.063,1.145c-19.189,16.684-38.898,34.288-50.523,50.002c-4.872,6.586-19.697,26.626-5.296,43.704
	c4.239,5.029,9.891,7.764,16.811,8.157L216.918,197.398z"/>
<path style="opacity:0.1;fill:#2F003A;enable-background:new    ;" d="M215.974,203.113c-8.538-15.887,4.091-32.982,8.518-38.967
	c10.948-14.799,29.066-31.275,47.169-47.079l-10.515-12.473c-0.805-0.954-1.961-1.547-3.208-1.644
	c-0.12-0.009-0.24-0.014-0.36-0.014c-1.122,0-2.211,0.404-3.063,1.145c-19.189,16.684-38.898,34.288-50.523,50.002
	c-4.872,6.586-19.697,26.626-5.296,43.704c4.239,5.029,9.891,7.764,16.811,8.157L215.974,203.113z"/>
<path style="fill:#ABB53C;" d="M309.772,152.516c-21.003-9.772-45.969-0.705-55.763,20.252l-1.113,2.381l41.349-1.25
	c8.236-0.249,15.115,6.211,15.364,14.429c0.247,8.22-6.224,15.081-14.461,15.33l-49.27,1.49l-6.42,42.367
	c1.941,0.876,3.199,2.925,2.928,5.144l-1.944,15.933c-0.205,1.676-1.232,3.057-2.624,3.8h0.001c1.629,1.594,2.663,3.781,2.774,6.211
	h26.726c2.75,0,5,2.25,5,5v7.678c0,2.75-2.25,5-5,5h-6.352l22.932,10.67l46.17-98.794
	C339.861,187.199,330.775,162.287,309.772,152.516z"/>
<path style="fill:#5E9900;" d="M345.982,461.62v-13.608c0-2.75-2.25-5-5-5h-61.58c-2.75,0-5,2.25-5,5v13.608H345.982z"/>
<path style="fill:#FFFFFF;" d="M267.318,278.602h-26.726c0.006,0.143,0.022,0.282,0.022,0.426v9.305
	c0,3.372-1.804,6.315-4.494,7.947h31.198c2.75,0,5-2.25,5-5v-7.678C272.318,280.852,270.068,278.602,267.318,278.602z"/>
<path style="fill:#B3CCE2;" d="M53.19,307.096c0,2.75-2.25,5-5,5h-8.649c-2.75,0-5-2.25-5-5v-39.311c0-2.75,2.25-5,5-5h8.649
	c2.75,0,5,2.25,5,5C53.19,267.785,53.19,307.096,53.19,307.096z"/>
<path style="fill:#0481BF;" d="M237.819,272.391c-0.875,0.468-1.892,0.689-2.946,0.561l-24.4-2.965
	c-4.102,0.977-7.157,4.648-7.157,9.041v9.305c0,5.139,4.175,9.304,9.325,9.304h18.649c5.15,0,9.324-4.165,9.324-9.304v-9.305
	C240.614,276.427,239.542,274.078,237.819,272.391z"/>
<path style="fill:#B3CCE2;" d="M294.245,173.898l-52.222,1.579c-12.309,0.372-23.102,9.795-25.105,21.92l-7.758,46.958
	c0.817-0.381,1.739-0.56,2.695-0.443l26.173,3.18c0.511,0.063,0.982,0.222,1.43,0.423l6.42-42.367l49.27-1.49
	c8.237-0.249,14.708-7.11,14.461-15.33C309.36,180.109,302.481,173.649,294.245,173.898z"/>
<path style="fill:#FFFFFF;" d="M208.7,269.772c-2.73-0.331-4.691-2.836-4.358-5.565l1.944-15.935
	c0.333-2.729,2.839-4.691,5.569-4.359l26.173,3.18c2.73,0.332,4.691,2.837,4.357,5.566l-1.944,15.933
	c-0.333,2.73-2.839,4.691-5.569,4.36L208.7,269.772z"/>
<path style="fill:#5E9900;" d="M208.7,269.772c-2.73-0.331-4.691-2.836-4.358-5.565l1.944-15.935
	c0.333-2.729,2.839-4.691,5.569-4.359l26.173,3.18c2.73,0.332,4.691,2.837,4.357,5.566l-1.944,15.933
	c-0.333,2.73-2.839,4.691-5.569,4.36L208.7,269.772z"/>
<path style="fill:#A2E8F9;" d="M327.193,102.482l8.677,21.644c1.023,2.552,4.11,4.641,6.86,4.641h32.054c2.75,0,5-2.25,5-5v-21.284
	L327.193,102.482L327.193,102.482z"/>
<path style="fill:#0481BF;" d="M376.753,75.501v-6.513c0-23.637-19.204-42.799-42.893-42.799h-8.392
	c-23.689,0-42.893,19.162-42.893,42.799v6.513H376.753z"/>
<path style="opacity:0.1;fill:#2F003A;enable-background:new    ;" d="M303,75.501v-6.513c0-21.599,16.037-39.451,36.877-42.371
	c-1.967-0.275-3.974-0.428-6.017-0.428h-8.392c-23.689,0-42.893,19.162-42.893,42.799v6.513H303z"/>
<path style="fill:#FFFFFF;" d="M386.078,97.482c0,2.75-2.25,5-5,5H278.25c-2.75,0-5-2.25-5-5V80.501c0-2.75,2.25-5,5-5h102.827
	c2.75,0,5,2.25,5,5v16.981H386.078z"/>
<path style="fill:#2D458A;" d="M386.078,97.482c0,2.75-2.25,5-5,5H278.25c-2.75,0-5-2.25-5-5V80.501c0-2.75,2.25-5,5-5h102.827
	c2.75,0,5,2.25,5,5v16.981H386.078z"/>
<g style="opacity:0.1;">
	<path d="M305,97.482V80.501c0-2.75,2.25-5,5-5h-31.75c-2.75,0-5,2.25-5,5v16.981c0,2.75,2.25,5,5,5H310
		C307.25,102.482,305,100.232,305,97.482z"/>
</g>
<path style="fill:#A2E8F9;" d="M151.099,485.81c-1.545,0-2.798-1.249-2.798-2.791v-18.608c0-1.542,1.253-2.791,2.798-2.791h317.968
	c6.17,0,11.189-5.009,11.189-11.165s-5.02-11.165-11.189-11.165h-9.324c-1.545,0-2.797-1.249-2.797-2.791v-18.608
	c0-1.542,1.253-2.791,2.797-2.791h9.324c19.538,0,35.434,15.86,35.434,35.355c0,19.495-15.896,35.355-35.434,35.355L151.099,485.81
	L151.099,485.81z"/>
<g style="opacity:0.1;">
	<path d="M190,483.02v-18.608c0-1.542,1.253-2.791,2.798-2.791h-41.699c-1.545,0-2.798,1.249-2.798,2.791v18.608
		c0,1.542,1.253,2.791,2.798,2.791h41.699C191.253,485.81,190,484.561,190,483.02z"/>
</g>
<path d="M231.076,422.19c0-4.143-3.358-7.5-7.5-7.5H67.854c-4.142,0-7.5,3.357-7.5,7.5c0,4.142,3.358,7.5,7.5,7.5h155.722
	C227.718,429.69,231.076,426.332,231.076,422.19z"/>
<path d="M88.343,376.69c-4.142,0-7.5,3.357-7.5,7.5c0,4.142,3.358,7.5,7.5,7.5H125c4.142,0,7.5-3.358,7.5-7.5
	c0-4.143-3.358-7.5-7.5-7.5H88.343z"/>
<path d="M153.5,384.19c0,4.142,3.358,7.5,7.5,7.5h83.066c4.142,0,7.5-3.358,7.5-7.5c0-4.143-3.358-7.5-7.5-7.5H161
	C156.858,376.69,153.5,380.047,153.5,384.19z"/>
<path d="M219.478,355.69c4.142,0,7.5-3.358,7.5-7.5c0-4.143-3.358-7.5-7.5-7.5H63.755c-4.142,0-7.5,3.357-7.5,7.5
	c0,4.142,3.358,7.5,7.5,7.5H219.478z"/>
<path d="M469.066,407.6h-9.324c-5.678,0-10.297,4.616-10.297,10.291v18.608c0,5.675,4.619,10.291,10.297,10.291h9.324
	c2.034,0,3.689,1.645,3.689,3.665c0,2.02-1.655,3.665-3.689,3.665h-87.61v-6.108c0-6.893-5.607-12.5-12.5-12.5h-14.009
	c0.498-1.484,0.859-3.028,1.054-4.62l11.462-93.965c1.384-11.345-5.602-24.106-15.903-29.053l-48.851-23.463l6.653-14.235
	c1.754-3.753,0.133-8.217-3.619-9.971c-3.753-1.754-8.217-0.134-9.97,3.619l-15.499,33.166l-1.51-0.703
	c0.674-1.534,1.055-3.227,1.055-5.008v-7.678c0-6.893-5.608-12.5-12.5-12.5h-19.747c0.134-0.522,0.248-1.054,0.315-1.603
	l1.944-15.932c0.389-3.186-0.453-6.331-2.354-8.91l4.879-32.202l43.018-1.302c12.353-0.373,22.102-10.714,21.731-23.054
	c-0.37-12.173-10.209-21.708-22.4-21.708c-0.229,0-0.457,0.003-0.687,0.011l-27.354,0.827c9.893-10.74,26.002-14.402,39.944-7.914
	c8.349,3.885,14.679,10.78,17.822,19.418c3.136,8.617,2.725,17.939-1.158,26.246l-13.481,28.845
	c-1.754,3.753-0.134,8.217,3.619,9.971c3.751,1.751,8.216,0.133,9.97-3.619l13.481-28.845c5.582-11.943,6.173-25.342,1.664-37.728
	c-0.271-0.743-0.56-1.477-0.862-2.201c18.753-3.198,35.164-15.422,43.355-32.947c0.848-1.814,1.586-3.66,2.239-5.525
	c2.469-2.285,4.026-5.542,4.026-9.163v-15.448c3.754-2.159,6.294-6.203,6.294-10.836V80.501c0-5.799-3.975-10.674-9.338-12.079
	c-0.307-27.475-22.783-49.732-50.379-49.732h-8.392c-27.596,0-50.072,22.258-50.378,49.732c-5.364,1.405-9.339,6.28-9.339,12.079
	v16.981c0,0.399,0.023,0.792,0.06,1.182c-1.996-1.831-4.583-2.98-7.326-3.192c-3.248-0.241-6.448,0.827-8.892,2.95
	c-19.503,16.956-39.553,34.876-51.632,51.203c-15.407,20.829-17.089,38.66-5,52.997c3.772,4.476,8.501,7.613,13.951,9.331
	l-4.67,28.27c-1.821,1.895-3.06,4.365-3.399,7.141l-1.944,15.935c-0.305,2.502,0.144,4.98,1.27,7.18
	c-1.493,2.505-2.352,5.428-2.352,8.55v0.913H60.69v-12.156c0-6.893-5.607-12.5-12.5-12.5h-8.649c-6.893,0-12.5,5.607-12.5,12.5
	v12.156H7.5c-4.142,0-7.5,3.358-7.5,7.5c0,4.143,3.358,7.5,7.5,7.5h19.541v12.155c0,6.893,5.607,12.5,12.5,12.5h8.649
	c6.893,0,12.5-5.607,12.5-12.5V294.94h129.305c-0.426,3.474-0.043,7.025,1.191,10.418c2.059,5.658,6.187,10.167,11.623,12.696
	l72.976,33.954c4.526,2.105,8.086,8.535,7.47,13.488l-8.739,70.286c-0.032,0.254-0.051,0.507-0.073,0.76
	c-4.431,1.924-7.541,6.338-7.541,11.469v6.108H151.099c-5.678,0-10.298,4.616-10.298,10.291v18.608
	c0,5.675,4.62,10.291,10.298,10.291H390c4.142,0,7.5-3.357,7.5-7.5c0-4.142-3.358-7.5-7.5-7.5H155.801v-9.19h313.266
	c10.306,0,18.689-8.373,18.689-18.665c0-10.292-8.384-18.665-18.689-18.665h-4.622v-9.19h4.622
	c15.403,0,27.934,12.496,27.934,27.855s-12.531,27.855-27.934,27.855H424c-4.142,0-7.5,3.358-7.5,7.5c0,4.143,3.358,7.5,7.5,7.5
	h45.066c23.674,0,42.934-19.225,42.934-42.855S492.74,407.6,469.066,407.6z M45.69,304.596h-3.649v-34.311h3.649V304.596z
	 M366.456,454.12h-12.974v-3.608h12.974V454.12z M345.066,321.396c4.539,2.18,8.117,8.717,7.507,13.715l-11.462,93.965
	c-0.309,2.535-1.884,4.888-4.009,6.436h-8.778l11.129-89.506c1.416-11.387-5.624-24.099-16.028-28.939l-29.55-13.749l2.484-5.316
	L345.066,321.396z M234.638,254.235l-1.339,10.97l-21.209-2.577l1.339-10.97L234.638,254.235z M210.816,279.027
	c0-0.548,0.254-1.034,0.646-1.365l21.652,2.631v8.039c0,0.994-0.818,1.804-1.824,1.804h-18.649c-1.006,0-1.825-0.81-1.825-1.804
	L210.816,279.027L210.816,279.027z M264.818,288.779h-16.726c0.004-0.15,0.023-0.296,0.023-0.447v-2.23h16.704v2.677H264.818z
	 M294.472,181.395l0.234-0.003c4.032,0,7.285,3.146,7.407,7.161c0.123,4.071-3.103,7.484-7.191,7.608l-49.27,1.49
	c-3.621,0.109-6.646,2.791-7.189,6.372l-5.292,34.923l-15.21-1.848l6.357-38.479c1.429-8.654,9.138-15.38,17.932-15.646
	L294.472,181.395z M280.75,113.591v-3.608h41.369l1.446,3.608H280.75z M378.578,94.982H280.75V83.001h97.827v11.981H378.578z
	 M338.28,109.982h34.003v11.284H342.98c-0.08-0.041-0.175-0.105-0.243-0.164L338.28,109.982z M299.319,128.591v9.648l-8.135-9.648
	H299.319z M328.643,157.225c-4.019-4.41-8.853-8.073-14.324-10.824v-17.81h15.411c2.597,4.532,7.785,7.676,13,7.676h22.468
	C357.492,148.923,343.653,156.956,328.643,157.225z M325.468,33.689h8.392c19.184,0,34.84,15.304,35.368,34.312H290.1
	C290.628,48.993,306.285,33.689,325.468,33.689z M204.428,192.953c-4.542-5.386-8.903-14.813,5.592-34.408
	c10.749-14.529,29.071-31.074,47.245-46.915l25.59,30.354c-14.481,2.753-27.541,11.891-34.743,25.807l-6.317,0.191
	c-15.826,0.478-29.702,12.599-32.278,28.193l-0.11,0.666C207.518,195.932,205.858,194.649,204.428,192.953z M282.113,338.409
	l-71.948-33.477c0.81,0.12,1.632,0.203,2.476,0.203h18.649c2.347,0,4.582-0.485,6.613-1.356h21.404l57.789,26.887
	c4.526,2.107,8.086,8.535,7.47,13.488l-11.359,91.357h-23.542l8.476-68.163C299.557,355.962,292.517,343.25,282.113,338.409z
	 M281.902,450.512h56.58v3.608h-56.58L281.902,450.512L281.902,450.512z"/>
<g>
</g>
<g>
</g>
<g>
</g>
<g>
</g>
<g>
</g>
<g>
</g>
<g>
</g>
<g>
</g>
<g>
</g>
<g>
</g>
<g>
</g>
<g>
</g>
<g>
</g>
<g>
</g>
<g>
</g>
</svg>
