<svg id="Capa_1" enable-background="new 0 0 512 512" height="24" viewBox="0 0 512 512" width="24" xmlns="http://www.w3.org/2000/svg"><g><path d="m504.5 255.191c0-1.032-.852-1.858-1.883-1.842-29.194.475-29.822 11.985-60.246 11.985-31.064 0-31.064-12-62.129-12-31.063 0-31.063 12-62.126 12-31.062 0-31.062-12-62.124-12-31.061 0-31.061 12-62.121 12-31.062 0-31.062-12-62.124-12s-31.062 12-62.125 12c-30.42 0-31.048-11.51-60.238-11.985-1.032-.017-1.883.81-1.883 1.842v185.803c0 1.016.824 1.84 1.84 1.84h493.319c1.017 0 1.841-.824 1.841-1.841v-185.802z" fill="#d3effb"/><path d="m504.5 255.191c0-1.032-.852-1.858-1.883-1.842-29.194.475-29.822 11.985-60.246 11.985-31.064 0-31.064-12-62.129-12-31.063 0-31.063 12-62.126 12-31.062 0-31.062-12-62.124-12-31.061 0-31.061 12-62.121 12-31.062 0-31.062-12-62.124-12s-31.062 12-62.125 12c-30.42 0-31.048-11.51-60.238-11.985-1.032-.017-1.883.81-1.883 1.842v185.803c0 1.016.824 1.84 1.84 1.84h493.319c1.017 0 1.841-.824 1.841-1.841v-185.802z" fill="#d3effb"/><path d="m502.617 253.35c-19.76.322-26.433 5.698-38.117 9.14v66.207c0 51.991-42.147 94.138-94.138 94.138h-362.862v18.16c0 1.016.824 1.84 1.84 1.84h493.319c1.016 0 1.841-.824 1.841-1.841v-185.803c0-1.032-.852-1.858-1.883-1.841z" fill="#b1e4f9"/><path d="m351.808 146.735c-19.431 13.212-19.051 46.351-11.989 58.582s35.571 29.131 56.728 18.909l25.539-12.34-1.051.508c-7.369 3.561-16.237.831-20.329-6.256l-7.756-13.434c-4.318-7.479-1.75-17.042 5.733-21.352l-.028.016c-7.472 4.304-17.019 1.741-21.33-5.727l-7.773-13.462c-4.092-7.088-2.022-16.132 4.746-20.734l.965-.656z" fill="#dfaca0"/><path d="m436.678 204.837c25.376-12.261 34.876-43.635 20.443-67.942-14.36-24.184-45.627-30.739-68.886-14.925l23.987 41.547 23.987 41.547z" fill="#707dd3"/><path d="m388.234 121.969-13.935 9.475c-6.768 4.602-8.839 13.646-4.746 20.734l7.764 13.448c4.315 7.473 13.871 10.034 21.344 5.719l13.56-7.829z" fill="#d3effb"/><path d="m436.209 205.063-23.987-41.547-13.56 7.829c-7.473 4.315-10.034 13.871-5.719 21.344l7.764 13.448c4.092 7.088 12.96 9.817 20.329 6.256z" fill="#b1e4f9"/><path d="m50.472 125.021c3.312 12.36 16.016 19.694 28.376 16.383l5.944-1.593c.095-.026.197.002.267.072s.097.172.071.267c-2.156 8.045 2.807 16.321 11.027 18.14 7.744 1.714 15.403-3.323 17.456-10.985l4.393-16.394 54.726-9.85c12.373-2.227 23.642-7.615 32.925-15.33 1.296-1.077 3.244-.118 3.199 1.566-.255 9.643 2.073 19.439 7.191 28.305l6.616 11.459c.389.675.792 1.338 1.206 1.99 10.072 15.84 5.062 36.852-11.194 46.237l-108.858 62.849c6.847-2.552 14.474-4.804 27.928-4.804 31.062 0 31.062 12 62.124 12 31.061 0 31.061-12 62.122-12 31.062 0 31.062 12 62.124 12 11.321 0 18.516-1.594 24.592-3.62l-.507-.878c-6.629-11.484-2.694-26.167 8.789-32.797l9.916-5.725c-9.762-4.511-17.778-11.266-21.087-16.996-3.304-5.723-5.146-16.025-4.179-26.72l-9.898 5.715c-11.483 6.63-26.166 2.695-32.796-8.788l-11.509-19.935-44.518-77.107c-4.217-7.305-12.815-10.866-20.963-8.683l-158.052 42.351c-5.606 1.502-8.933 7.265-7.431 12.871z" fill="#d59b8b"/><path d="m502.494 245.851c-30.633.498-31.747 11.984-60.123 11.984-28.976 0-29.513-12-62.129-12-16.677 0-25.605 3.353-33.411 6.366-1.409-6.787 1.586-14.017 7.909-17.667l6.685-3.859c12.506 4.963 26.317 6.135 38.386.305 7.209-3.483 37.807-18.266 40.13-19.389 11.006-5.317 19.756-13.858 25.305-24.699 1.888-3.687.429-8.206-3.259-10.094-3.685-1.887-8.205-.428-10.093 3.259-3.065 5.989-7.473 11.016-12.923 14.792-.062-.108-20.316-35.187-20.254-35.081l-.007-.012-20.22-35.022c18.56-8.672 41.153-2.581 52.183 15.993 1.863 3.137 3.296 6.488 4.258 9.959 1.107 3.992 5.241 6.33 9.23 5.224 3.992-1.106 6.331-5.239 5.225-9.231-1.317-4.752-3.274-9.333-5.815-13.612-16.516-27.812-52.578-35.639-79.552-17.298-25.546 17.366-5.576 3.791-36.426 24.766-11.386 7.741-17.056 20.585-18.935 33.436l-6.665 3.848c-7.899 4.562-17.987 1.861-22.551-6.042l-56.027-97.042c-5.902-10.227-17.995-15.234-29.398-12.178l-158.055 42.348c-4.646 1.245-8.53 4.225-10.936 8.391-2.405 4.167-3.044 9.02-1.798 13.666 4.187 15.626 19.47 24.826 34.564 22.333 1.956 7.918 8.188 14.423 16.745 16.316 11.611 2.567 23.174-4.621 26.32-16.367l3.161-11.796 50.041-9.007c9.927-1.786 19.422-5.478 27.93-10.815 1.121 7.62 3.675 14.992 7.563 21.725 6.66 11.502 6.727 11.737 7.987 13.725 7.792 12.251 3.957 28.459-8.614 35.717l-26.437 15.263c-3.587 2.071-4.816 6.658-2.745 10.245 2.085 3.613 6.683 4.803 10.245 2.745l26.437-15.263c19.922-11.502 26.179-37.246 13.774-56.754-.939-1.475-.982-1.641-7.657-13.178-4.274-7.402-6.415-15.824-6.189-24.358.097-3.708-1.995-7.149-5.329-8.766-3.329-1.615-7.317-1.129-10.161 1.236-8.454 7.026-18.641 11.77-29.46 13.716l-54.726 9.85c-2.859.515-5.164 2.634-5.916 5.44l-4.393 16.394c-1.048 3.907-4.91 6.418-8.592 5.603-4.021-.891-6.464-4.916-5.4-8.885.709-2.662-.056-5.529-2.033-7.521-1.952-1.938-4.815-2.704-7.494-1.995l-5.944 1.593c-8.362 2.241-16.948-2.712-19.189-11.081-.434-1.622.54-3.259 2.128-3.684l158.054-42.35c4.855-1.302 10.01.831 12.525 5.188l56.027 97.042c8.574 14.851 27.146 19.875 41.857 12.183.752 7.12 2.567 13.368 5.016 17.61 2.453 4.248 6.968 8.953 12.771 13.17-11.698 7.425-16.934 21.481-13.629 34.408-3.91.734-8.514 1.189-14.35 1.189-29.098 0-29.491-12-62.125-12-32.319 0-33.341 12-62.121 12-26.899 0-28.357-9.836-54.219-11.724l19-10.969c3.587-2.071 4.816-6.658 2.745-10.245-2.07-3.587-6.659-4.817-10.245-2.745l-50.548 29.184c-.892.336-1.763.673-2.621 1.004-7.315 2.826-14.227 5.496-28.359 5.496-28.459 0-29.319-11.483-60.114-11.984-5.056-.123-9.508 3.989-9.508 9.341v185.803c0 5.15 4.189 9.34 9.34 9.34h493.319c5.15 0 9.341-4.19 9.341-9.34v-112.44c0-4.142-3.357-7.5-7.5-7.5s-7.5 3.358-7.5 7.5v106.78h-482v-174.221c21.4 1.703 25.051 11.721 54.622 11.721 32.425 0 33.238-12 62.124-12 29.096 0 29.492 12 62.124 12 32.319 0 33.341-12 62.121-12 28.974 0 29.511 12 62.125 12 32.759 0 32.88-12 62.126-12 28.976 0 29.513 12 62.129 12 29.628 0 33.142-10.011 54.629-11.721v32.441c0 4.142 3.357 7.5 7.5 7.5s7.5-3.358 7.5-7.5v-38.363c0-5.362-4.447-9.438-9.506-9.34zm-93.018-72.09 16.201 28.061c-2.96 1.43-7.808 3.772-7.911 3.822-3.813 1.839-8.449.406-10.564-3.257l-7.765-13.448c-2.24-3.88-.906-8.859 2.974-11.1zm-31.01-36.081c.206-.14 1.192-.811 7.309-4.97l16.201 28.061-7.065 4.079c-3.887 2.245-8.854.915-11.099-2.974l-7.765-13.449c-2.105-3.648-1.041-8.356 2.419-10.747zm-22.441 15.258 4.593-3.123c.504 2.102 1.312 4.16 2.439 6.113l7.765 13.449c2.922 5.061 7.543 8.759 13.086 10.496-1.212 5.454-.468 11.358 2.539 16.567l7.765 13.448c1.127 1.953 2.506 3.682 4.074 5.17l-5.001 2.416c-17.07 8.247-41.773-6.904-46.971-15.906-5.197-9.002-5.965-37.972 9.711-48.63z"/><path d="m227.634 326.55c7.315-2.827 14.226-5.496 28.357-5.496 4.143 0 7.5-3.358 7.5-7.5s-3.357-7.5-7.5-7.5c-16.929 0-25.872 3.456-33.764 6.504-7.315 2.827-14.226 5.496-28.357 5.496s-21.043-2.669-28.358-5.496c-7.892-3.048-16.836-6.504-33.766-6.504-16.929 0-25.873 3.455-33.765 6.504-7.315 2.826-14.227 5.496-28.359 5.496-4.143 0-7.5 3.358-7.5 7.5s3.357 7.5 7.5 7.5c16.93 0 25.874-3.456 33.766-6.504 7.315-2.827 14.227-5.496 28.358-5.496 14.133 0 21.044 2.67 28.359 5.496 7.892 3.049 16.836 6.504 33.765 6.504s25.872-3.455 33.764-6.504z"/><path d="m193.87 393.274c16.929 0 25.872-3.456 33.764-6.504 7.315-2.827 14.226-5.496 28.357-5.496 14.133 0 21.044 2.669 28.359 5.496 7.892 3.048 16.836 6.504 33.766 6.504s25.874-3.455 33.765-6.504c7.317-2.826 14.228-5.496 28.361-5.496s21.045 2.67 28.362 5.496c7.892 3.049 16.836 6.504 33.767 6.504 4.143 0 7.5-3.358 7.5-7.5s-3.357-7.5-7.5-7.5c-14.134 0-21.045-2.67-28.362-5.496-7.892-3.049-16.836-6.504-33.767-6.504s-25.875 3.456-33.767 6.504c-7.316 2.827-14.227 5.496-28.359 5.496s-21.044-2.669-28.359-5.496c-7.892-3.048-16.836-6.504-33.766-6.504-16.929 0-25.872 3.456-33.764 6.504-7.315 2.827-14.226 5.496-28.357 5.496-4.143 0-7.5 3.358-7.5 7.5s3.358 7.5 7.5 7.5z"/><path d="m287.996 242.931c4.014-1.023 6.438-5.107 5.414-9.121l-5.538-21.711c-1.024-4.015-5.117-6.438-9.121-5.414-4.014 1.023-6.438 5.107-5.414 9.121l5.538 21.711c1.024 4.016 5.11 6.439 9.121 5.414z"/></g></svg>